<svg width="53" height="53" viewBox="0 0 53 53" fill="none" xmlns="http://www.w3.org/2000/svg">
<path d="M46.375 6.625H30.9167C29.2816 6.63054 27.7071 7.24458 26.5 8.3475C25.2929 7.24458 23.7184 6.63054 22.0833 6.625H6.625C6.03931 6.625 5.47762 6.85766 5.06347 7.27181C4.64933 7.68595 4.41667 8.24765 4.41667 8.83333V41.9583C4.41667 42.544 4.64933 43.1057 5.06347 43.5199C5.47762 43.934 6.03931 44.1667 6.625 44.1667H19.3406C20.5022 44.1667 21.6417 44.6393 22.4632 45.4608L24.9387 47.9363C24.9586 47.9562 24.9851 47.9628 25.005 47.9827C25.1949 48.1571 25.4069 48.3117 25.6542 48.4155H25.6586C26.1974 48.6386 26.8026 48.6386 27.3414 48.4155H27.3458C27.5931 48.3117 27.8051 48.1571 27.995 47.9827C28.0149 47.9628 28.0414 47.9562 28.0613 47.9363L30.5368 45.4608C31.367 44.6355 32.4889 44.1705 33.6594 44.1667H46.375C46.9607 44.1667 47.5224 43.934 47.9365 43.5199C48.3507 43.1057 48.5833 42.544 48.5833 41.9583V8.83333C48.5833 8.24765 48.3507 7.68595 47.9365 7.27181C47.5224 6.85766 46.9607 6.625 46.375 6.625ZM19.3406 39.75H8.83333V11.0417H22.0833C23.3023 11.0417 24.2917 12.0332 24.2917 13.25V41.2715C22.8285 40.2849 21.1053 39.7553 19.3406 39.75ZM44.1667 39.75H33.6594C31.895 39.75 30.1614 40.2933 28.7083 41.2715V13.25C28.7083 12.0332 29.6977 11.0417 30.9167 11.0417H44.1667V39.75Z" fill="white"/>
</svg>
