<svg width="276" height="484" viewBox="0 0 276 484" fill="none" xmlns="http://www.w3.org/2000/svg">
<path d="M55.7182 51.7613L47.4301 14.9654L44.7267 2.97842C44.5025 1.98955 43.8947 1.13031 43.0372 0.589708C42.1797 0.0491023 41.1427 -0.128596 40.1543 0.0957101L36.0714 1.01952L3.3303 8.40987C2.84151 8.52005 2.37921 8.72551 1.96983 9.01451C1.56044 9.30351 1.21199 9.67038 0.944398 10.0942C0.676805 10.518 0.495319 10.9903 0.410291 11.4843C0.325264 11.9783 0.338374 12.4842 0.44887 12.9732C-1.30884 29.3455 2.16217 44.4488 9.69383 58.584C10.2501 59.6413 10.8398 60.6987 11.4516 61.7561C11.6135 62.4872 11.9892 63.1535 12.5308 63.6704C12.9867 64.1061 13.543 64.4225 14.1505 64.5914C14.7579 64.7603 15.3977 64.7766 16.0129 64.6387L20.3072 63.6704L22.955 63.0694L52.8369 56.3246C53.8238 56.1015 54.6817 55.4955 55.222 54.6398C55.7623 53.784 55.9408 52.7486 55.7182 51.7613Z" fill="#E6E6E6"/>
<path d="M52.2917 49.7132L44.3929 14.7092L42.5017 6.30606C42.2932 5.38088 41.7262 4.57634 40.9251 4.0692C40.1241 3.56207 39.1546 3.39384 38.2296 3.60147L35.7153 4.16911L6.57874 10.7469C5.65398 10.9555 4.84979 11.5228 4.34289 12.3242C3.83598 13.1256 3.66782 14.0955 3.87535 15.0209C4.1312 27.7647 5.46623 39.3288 10.9509 46.3853C11.5751 49.13 12.9148 51.6603 14.8338 53.7189C16.7527 55.7775 19.1824 57.2909 21.8757 58.1052C21.9424 58.1274 21.9981 58.1497 22.0648 58.1719C22.1094 58.1831 22.165 58.2054 22.2095 58.2165C24.7445 58.9301 27.4176 58.9989 29.9859 58.4168L49.5883 53.987C50.5131 53.7785 51.3172 53.2112 51.8242 52.4098C52.3311 51.6085 52.4992 50.6385 52.2917 49.7132Z" fill="white"/>
<path d="M23.2637 22.4185C23.9084 21.6743 24.7765 21.1587 25.7383 20.9489C26.7001 20.7391 27.7039 20.8463 28.5998 21.2545C30.5441 22.226 31.2985 24.2932 30.9878 26.3486C30.6408 28.6447 29.442 30.735 29.3331 33.086C29.2378 35.1435 30.0044 37.3053 31.8268 38.413C33.1336 39.2073 34.4787 37.241 33.1656 36.4429C31.0049 35.1296 31.731 32.2435 32.3577 30.275C33.1403 27.8169 33.9558 25.311 32.9877 22.7782C32.5591 21.7177 31.8716 20.7817 30.988 20.0558C30.1045 19.3298 29.0531 18.8371 27.93 18.6227C26.8069 18.4083 25.6481 18.4791 24.5594 18.8285C23.4707 19.1779 22.487 19.7949 21.6982 20.6229C20.6671 21.7352 22.2197 23.5448 23.2637 22.4185Z" fill="#FF9D9D"/>
<path d="M33.7521 45.2788C35.0672 45.2788 36.1334 44.2122 36.1334 42.8965C36.1334 41.5808 35.0672 40.5142 33.7521 40.5142C32.437 40.5142 31.3708 41.5808 31.3708 42.8965C31.3708 44.2122 32.437 45.2788 33.7521 45.2788Z" fill="#FF9D9D"/>
<path d="M183.624 460.493L145.926 460.268L133.644 460.196C131.533 460.185 129.803 460.988 129.78 461.99L129.73 463.976L129.317 479.902C129.285 480.897 130.974 481.724 133.084 481.735C148.462 484.251 164.125 484.505 179.576 482.489C180.733 482.348 181.897 482.194 183.068 482.027C183.782 482.037 184.494 481.94 185.18 481.739C186.222 481.418 186.911 480.866 186.929 480.239L186.985 478.15L187.015 476.861L187.393 462.326C187.416 461.324 185.724 460.503 183.624 460.493Z" fill="#E6E6E6"/>
<path d="M180.838 461.849L144.972 461.642L136.363 461.589C134.39 461.578 132.767 462.327 132.742 463.264L132.71 464.487L132.343 478.66C132.318 479.596 133.898 480.367 135.871 480.378C148.321 481.663 159.874 482.32 168.008 480.565C173.929 480.595 179.151 479.081 181.938 476.813C181.975 476.784 182.01 476.761 182.047 476.733C182.068 476.714 182.103 476.69 182.124 476.671C182.691 476.253 183.163 475.718 183.508 475.103C183.853 474.488 184.062 473.806 184.123 473.104L184.366 463.568C184.391 462.631 182.811 461.861 180.838 461.849Z" fill="white"/>
<path d="M147.563 472.243C146.464 471.462 146.349 470.4 147.67 469.652C149.066 468.862 151.251 468.741 153.177 469.111C155.329 469.524 157.083 470.307 159.343 470.616C161.322 470.887 163.602 470.771 165.101 470.051C166.177 469.536 164.577 468.698 163.497 469.217C161.718 470.069 159.081 469.417 157.312 468.91C155.104 468.279 152.857 467.626 150.17 467.794C145.281 468.1 142.73 470.833 145.454 472.768C146.296 473.367 148.416 472.849 147.563 472.243V472.243Z" fill="#E6E6E6"/>
<path d="M169.907 470.787C171.223 470.787 172.289 470.281 172.289 469.657C172.289 469.033 171.223 468.527 169.907 468.527C168.592 468.527 167.526 469.033 167.526 469.657C167.526 470.281 168.592 470.787 169.907 470.787Z" fill="#E6E6E6"/>
<path d="M2.13551 184.369C-1.14007 170.606 -0.593799 157.05 5.01517 143.768C5.07439 142.946 5.45697 142.182 6.079 141.642C6.70104 141.102 7.51173 140.831 8.33321 140.888L38.9826 143.064C39.804 143.123 40.5683 143.506 41.1079 144.128C41.6475 144.751 41.9183 145.562 41.861 146.384L38.9813 186.985C38.9221 187.807 38.5395 188.571 37.9175 189.111C37.2955 189.651 36.4848 189.922 35.6633 189.865L5.01387 187.689C4.19253 187.63 3.42821 187.247 2.8886 186.625C2.34899 186.002 2.07815 185.191 2.13551 184.369Z" fill="#F2F2F2"/>
<path d="M5.35623 172.273C2.73483 165.491 4.41092 156.163 7.20754 146.171C7.26298 145.401 7.62128 144.685 8.20384 144.179C8.78639 143.674 9.54563 143.42 10.315 143.474L36.6556 145.344C37.4248 145.399 38.1407 145.758 38.646 146.34C39.1514 146.923 39.4051 147.683 39.3514 148.453L36.7889 184.582C36.7334 185.352 36.3751 186.068 35.7925 186.574C35.2099 187.079 34.4507 187.333 33.6813 187.279L17.3639 186.121C13.9375 185.874 10.749 184.277 8.49794 181.681C6.24685 179.085 5.11698 175.701 5.35623 172.273Z" fill="white"/>
<path d="M23.5925 174.043C22.7879 173.905 21.9834 173.767 21.1788 173.628C21.5495 172.753 21.7634 171.819 21.8109 170.87C22.1916 165.788 22.23 160.658 22.4332 155.567C22.4279 155.38 22.3689 155.2 22.2632 155.046C22.1576 154.893 22.0098 154.773 21.8378 154.702C21.6658 154.631 21.4768 154.611 21.2937 154.644C21.1105 154.678 20.9411 154.764 20.8057 154.892C18.7851 156.566 16.7644 158.241 14.7438 159.915C13.7979 160.699 15.1533 162.042 16.092 161.264C17.5423 160.062 18.9927 158.86 20.443 157.659C20.3099 160.995 20.1768 164.331 20.0436 167.668C19.9798 169.269 20.1743 171.214 19.5191 172.719C19.4295 172.922 19.3125 173.112 19.1714 173.283C18.2807 173.13 17.3899 172.977 16.4991 172.824C15.8584 172.714 15.0444 173.249 15.3263 173.997C15.9395 175.624 17.7469 176.138 19.2967 175.511C19.4333 175.45 19.5655 175.379 19.6923 175.299L23.0857 175.883C24.2858 176.089 24.8014 174.251 23.5925 174.043Z" fill="#F2F2F2"/>
<path d="M113.36 188.185C110.084 174.421 110.631 160.865 116.24 147.583C116.299 146.762 116.681 145.997 117.303 145.457C117.925 144.917 118.736 144.646 119.558 144.704L150.207 146.88C151.028 146.939 151.793 147.322 152.332 147.944C152.872 148.566 153.143 149.377 153.085 150.199L150.206 190.801C150.146 191.622 149.764 192.387 149.142 192.927C148.52 193.467 147.709 193.738 146.888 193.68L116.238 191.504C115.417 191.445 114.653 191.062 114.113 190.44C113.573 189.818 113.303 189.007 113.36 188.185Z" fill="#F2F2F2"/>
<path d="M116.581 176.088C113.959 169.306 115.635 159.978 118.432 149.986C118.487 149.217 118.846 148.5 119.428 147.995C120.011 147.489 120.77 147.236 121.539 147.289L147.88 149.159C148.649 149.215 149.365 149.573 149.87 150.156C150.376 150.739 150.629 151.498 150.576 152.268L148.013 188.398C147.958 189.167 147.599 189.883 147.017 190.389C146.434 190.895 145.675 191.148 144.906 191.095L128.588 189.936C125.162 189.689 121.973 188.092 119.722 185.496C117.471 182.9 116.341 179.517 116.581 176.088Z" fill="white"/>
<path d="M133.776 169.2C134.126 169.036 134.457 168.835 134.764 168.6C135.581 167.926 136.185 167.03 136.502 166.019C136.82 165.009 136.838 163.928 136.553 162.908C135.317 158.365 129.886 158.338 126.136 158.884C124.927 159.061 125.441 160.899 126.643 160.724C129.17 160.355 133.138 160.058 134.495 162.819C134.805 163.468 134.916 164.194 134.812 164.905C134.709 165.617 134.397 166.281 133.915 166.815C133.339 167.393 132.581 167.754 131.769 167.836C130.983 167.494 130.129 167.334 129.273 167.37C128.389 167.412 127.897 168.697 128.791 169.147C129.583 169.542 130.455 169.747 131.34 169.748C132.073 170.102 132.686 170.665 133.1 171.366C133.515 172.068 133.713 172.876 133.67 173.689C133.586 174.246 133.392 174.781 133.1 175.263C132.809 175.745 132.425 176.164 131.97 176.497C131.516 176.83 131 177.07 130.453 177.202C129.906 177.335 129.338 177.358 128.782 177.271C127.583 177.03 127.071 178.868 128.275 179.11C129.097 179.265 129.941 179.252 130.758 179.072C131.574 178.892 132.346 178.548 133.026 178.061C133.706 177.575 134.281 176.955 134.716 176.241C135.151 175.526 135.436 174.731 135.555 173.903C135.631 173.035 135.51 172.162 135.202 171.348C134.894 170.534 134.407 169.799 133.776 169.2Z" fill="#F2F2F2"/>
<path d="M172.941 448.558L162.157 448.557L157.028 406.944L172.943 406.946L172.941 448.558Z" fill="#FFB6B6"/>
<path d="M173.32 459.812L140.16 459.811V459.391C140.16 455.967 141.52 452.682 143.94 450.261C146.361 447.839 149.644 446.479 153.067 446.479H153.068L159.125 441.881L170.426 446.479L173.321 446.479L173.32 459.812Z" fill="#2F2E41"/>
<path d="M222.515 471.448L211.732 471.448L206.602 429.835L222.517 429.836L222.515 471.448Z" fill="#FFB6B6"/>
<path d="M222.895 482.703L189.734 482.701V482.282C189.734 478.857 191.094 475.573 193.515 473.152C195.935 470.73 199.218 469.37 202.641 469.369H202.642L208.699 464.772L220.001 469.37L222.895 469.37L222.895 482.703Z" fill="#2F2E41"/>
<path d="M89.8409 138.668C90.5817 139.496 91.4934 140.154 92.513 140.595C93.5327 141.036 94.6359 141.25 95.7464 141.223C96.857 141.195 97.9483 140.927 98.9449 140.436C99.9415 139.945 100.82 139.243 101.519 138.379L138.287 148.85L143.683 139.388L99.921 127.271C98.3801 126.202 96.5008 125.736 94.6393 125.961C92.7779 126.185 91.0634 127.085 89.821 128.49C88.5785 129.895 87.8943 131.707 87.898 133.583C87.9016 135.459 88.593 137.268 89.8409 138.668Z" fill="#FFB6B6"/>
<path d="M185.456 226.248L146.768 314.746L142.319 328.735L155.77 426.92L177.481 425.86L177.432 413.269C177.432 413.269 172.265 410.466 177.415 408.943C182.565 407.421 182.348 403.555 177.372 397.858C172.396 392.16 177.139 337.637 177.139 337.637C177.139 337.637 197.628 318.008 195.396 312.88C193.164 307.752 197.307 307.752 197.307 307.752C197.307 307.752 201.725 306.961 201.893 304.813C202.062 302.665 205.336 298.346 205.336 298.346L204.189 449.565H222.922C222.922 449.565 231.486 435.327 229.803 432.263C228.12 429.199 225.766 428.899 229.803 425.234C233.84 421.569 239.765 424.568 237.121 417.664C234.476 410.759 235.155 336.253 235.155 336.253C235.155 336.253 245.576 293.017 239.138 290.081C232.7 287.145 235.901 287.56 239.702 283.537C243.504 279.515 237.056 279.883 240.28 276.838C243.504 273.793 243.634 237.954 243.634 237.954L185.456 226.248Z" fill="#2F2E41"/>
<path d="M246.552 251.161C219.432 251.097 196.164 257.195 169.044 257.132C170.811 244.898 176.986 225.723 178.752 213.486C181.236 196.276 179.31 186.003 181.787 168.793C182.035 167.108 182.277 165.429 182.518 163.744C183.497 156.941 181.152 150.137 185.359 142.952C187.151 139.887 190.132 136.759 195.071 133.529C205.329 134.571 205.151 129.942 215.409 130.985L218.803 137.751C219.235 140.319 220.792 141.992 222.902 143.257C227.243 145.883 233.929 146.799 237.946 150.353C242.992 154.817 242.656 161.957 241.156 168.926C240.622 171.406 239.942 173.861 239.3 176.169C234.133 194.765 240.737 208.953 246.122 226.203C246.633 227.839 241.797 234.165 242.309 235.741C243.178 238.412 246.289 241.734 245.793 243.539C245.18 245.774 244.569 247.876 246.552 251.161Z" fill="white"/>
<path d="M241.156 168.926L181.787 168.793L179.88 168.786L109.475 142.907L118.485 143.212L122.667 133.567L124.681 128.931L166.178 142.805L185.359 142.952L221.523 143.219C221.987 143.225 222.444 143.238 222.902 143.257C227.243 145.883 233.929 146.799 237.946 150.353C242.992 154.817 242.656 161.957 241.156 168.926Z" fill="white"/>
<path d="M200.595 129.14C211.25 129.14 219.888 120.498 219.888 109.838C219.888 99.1786 211.25 90.5371 200.595 90.5371C189.94 90.5371 181.302 99.1786 181.302 109.838C181.302 120.498 189.94 129.14 200.595 129.14Z" fill="#FFB6B6"/>
<path d="M197.853 126.428L199.425 131.456C202.909 129.735 212.797 127.347 215.698 124.76C218.6 122.174 220.844 118.605 220.981 114.72C221.052 112.713 220.566 110.689 220.9 108.709C221.276 106.472 222.657 104.532 223.288 102.353C223.88 100.071 223.657 97.6535 222.659 95.5176C221.661 93.3816 219.951 91.6603 217.821 90.6499C214.623 89.2438 210.967 89.6385 207.49 89.2987C204.013 88.9589 200.135 87.3854 199.156 84.0306C198.791 82.7762 198.832 81.2973 197.712 80.476C197.15 80.0996 196.467 79.945 195.797 80.0419C195.127 80.1388 194.517 80.4804 194.084 81.0009C194.032 81.0595 193.982 81.1186 193.935 81.1783C190.992 84.8719 185.445 85.1461 182.543 81.4207C182.353 81.1773 182.171 80.9282 181.996 80.6735C181.386 81.2449 180.895 81.9316 180.552 82.6939C180.209 83.4561 180.02 84.2789 179.997 85.1145C179.974 85.9502 180.116 86.7822 180.416 87.5624C180.716 88.3426 181.168 89.0555 181.745 89.66C180.649 89.6605 179.585 89.2913 178.724 88.6122C177.863 87.933 177.256 86.9834 177.001 85.9167C175.67 87.7565 174.303 89.6752 173.875 91.9058C173.447 94.1364 174.241 96.7746 176.286 97.7617C177.33 98.1743 178.45 98.3578 179.571 98.2997C174.296 104.542 177.461 104.362 188.143 98.4626C193.442 98.5634 191.349 103.49 191.418 108.792C193.912 108.552 196.48 108.318 198.839 109.368C199.937 109.831 200.863 110.627 201.485 111.644C203.044 114.322 201.498 117.106 200.127 119.542C198.956 121.625 197.845 124.132 198.817 126.315" fill="#2F2E41"/>
<path d="M162.74 288.236C163.712 287.698 164.556 286.956 165.213 286.06C165.87 285.164 166.325 284.135 166.546 283.046C166.767 281.957 166.749 280.833 166.493 279.752C166.237 278.67 165.749 277.657 165.064 276.783L183.469 243.261L175.452 235.888L153.883 275.863C152.498 277.127 151.625 278.856 151.428 280.721C151.232 282.587 151.727 284.46 152.818 285.985C153.91 287.51 155.523 288.581 157.351 288.996C159.18 289.411 161.097 289.14 162.74 288.236L162.74 288.236Z" fill="#FFB6B6"/>
<path d="M207.629 131.475L203.339 208.362L182.671 256.68L169.218 274.528L170.747 266.44L161.474 261.798L160.604 261.366L172.947 230.089L176.671 220.653L178.406 192.249L180.046 165.391C180.329 160.769 181.567 156.256 183.683 152.137C185.799 148.019 188.746 144.384 192.338 141.464L202.634 133.096L207.629 131.475Z" fill="white"/>
<path d="M63.1499 131.594C59.8743 117.831 60.4206 104.274 66.0296 90.9927C66.0888 90.171 66.4714 89.4063 67.0934 88.8665C67.7154 88.3266 68.5261 88.0556 69.3476 88.113L99.997 90.2888C100.818 90.348 101.583 90.7308 102.122 91.3531C102.662 91.9754 102.933 92.7864 102.875 93.6083L99.9957 134.21C99.9365 135.031 99.5539 135.796 98.9319 136.336C98.3099 136.876 97.4992 137.147 96.6777 137.089L66.0283 134.914C65.2069 134.854 64.4426 134.472 63.903 133.849C63.3634 133.227 63.0926 132.416 63.1499 131.594Z" fill="#F2F2F2"/>
<path d="M66.3706 119.498C63.7492 112.715 65.4253 103.387 68.2219 93.3954C68.2774 92.6258 68.6357 91.9097 69.2182 91.4041C69.8008 90.8985 70.56 90.6447 71.3294 90.6985L97.67 92.5684C98.4392 92.6238 99.155 92.9823 99.6604 93.5651C100.166 94.1479 100.419 94.9075 100.366 95.6772L97.8033 131.807C97.7478 132.576 97.3895 133.293 96.8069 133.798C96.2243 134.304 95.4651 134.558 94.6957 134.504L78.3783 133.345C74.9519 133.098 71.7634 131.502 69.5123 128.906C67.2613 126.309 66.1314 122.926 66.3706 119.498Z" fill="white"/>
<path d="M82.5688 101.316C79.8686 100.378 76.8661 102.515 76.5597 105.284C76.2123 108.424 79.5878 110.902 82.51 110.049C83.6855 109.706 83.1853 107.864 82.0031 108.21C79.8611 108.835 77.5763 106.521 78.8078 104.452C79.0876 103.953 79.5127 103.551 80.0267 103.299C80.5406 103.048 81.119 102.959 81.6847 103.044C82.1651 103.177 82.6075 103.421 82.9766 103.756C83.3457 104.091 83.6312 104.508 83.8101 104.974C84.861 107.343 83.6121 109.749 81.9566 111.471C81.0125 112.453 79.9048 113.216 78.8872 114.112C78.3925 114.486 77.9816 114.959 77.681 115.502C77.3804 116.044 77.1967 116.644 77.1419 117.262C77.1687 117.956 77.3849 118.631 77.7672 119.212C78.1494 119.792 78.6831 120.258 79.3106 120.557C80.9362 121.393 82.7852 121.127 84.5145 120.849C85.7228 120.654 85.21 118.816 84.0076 119.009C82.4952 119.253 80.2307 119.622 79.2723 118.044C78.4515 116.693 80.1425 115.506 81.0638 114.788C83.3794 112.981 85.721 110.649 86.0687 107.577C86.3535 105.061 85.0754 102.186 82.5688 101.316Z" fill="#FF9D9D"/>
<path d="M113.415 483.243C113.415 483.343 113.434 483.441 113.472 483.533C113.51 483.625 113.566 483.709 113.636 483.779C113.706 483.85 113.79 483.905 113.882 483.943C113.974 483.981 114.072 484 114.172 484H275.155C275.355 484 275.548 483.92 275.689 483.779C275.831 483.637 275.911 483.444 275.911 483.243C275.911 483.043 275.831 482.85 275.689 482.708C275.548 482.567 275.355 482.487 275.155 482.487H114.172C114.072 482.487 113.974 482.506 113.882 482.544C113.79 482.582 113.706 482.637 113.636 482.708C113.566 482.778 113.51 482.862 113.472 482.954C113.434 483.046 113.415 483.144 113.415 483.243Z" fill="#CCCCCC"/>
<path d="M32.3732 65.1955C31.5778 76.9545 31.9599 90.3002 41.0838 99.0236C43.2216 101.086 45.7746 102.669 48.5724 103.667C49.732 104.076 50.2307 102.233 49.0793 101.827C44.3923 100.174 40.7049 96.5419 38.2481 92.295C35.3679 87.3163 34.269 81.5727 34.0284 75.8798C33.9167 72.3165 34.0006 68.7496 34.2799 65.1954C34.3628 63.9701 32.4557 63.9752 32.3732 65.1954V65.1955Z" fill="#3F3D56"/>
<path d="M46.586 92.1043C48.8475 93.1554 51.218 94.2249 53.007 96.0121C54.639 97.6425 55.7785 100.021 55.1173 102.344C54.0324 106.157 49.2012 107.594 45.8327 108.504C45.5967 108.578 45.3986 108.74 45.2802 108.958C45.1618 109.175 45.1324 109.43 45.1981 109.668C45.2639 109.907 45.4196 110.111 45.6326 110.236C45.8455 110.362 46.099 110.401 46.3396 110.343C49.7281 109.428 53.5275 108.152 55.7409 105.249C58.36 101.815 57.1166 97.2887 54.1745 94.4875C52.2792 92.6829 49.8949 91.5478 47.5483 90.4572C46.4425 89.9432 45.473 91.587 46.586 92.1043H46.586Z" fill="#3F3D56"/>
</svg>
