<svg width="344" height="401" viewBox="0 0 344 401" fill="none" xmlns="http://www.w3.org/2000/svg">
<path d="M257.77 140.899H61.9453C47.3527 140.882 33.3625 135.082 23.044 124.769C12.7254 114.457 6.92125 100.475 6.90479 85.8906V61.9135C6.92123 47.3294 12.7254 33.3473 23.0439 23.0347C33.3625 12.7222 47.3527 6.92133 61.9453 6.90479H281.762C296.354 6.92133 310.344 12.7222 320.663 23.0347C330.982 33.3473 336.786 47.3294 336.802 61.9135C336.778 82.8544 328.444 102.931 313.628 117.738C298.812 132.546 278.724 140.875 257.77 140.899Z" fill="white"/>
<path d="M207.256 43.021H77.8129C77.0726 43.021 76.3626 42.7271 75.8391 42.2039C75.3156 41.6807 75.0215 40.9711 75.0215 40.2312C75.0215 39.4913 75.3156 38.7817 75.8391 38.2585C76.3626 37.7353 77.0726 37.4414 77.8129 37.4414H207.256C207.996 37.4414 208.706 37.7353 209.23 38.2585C209.753 38.7817 210.047 39.4913 210.047 40.2312C210.047 40.9711 209.753 41.6807 209.23 42.2039C208.706 42.7271 207.996 43.021 207.256 43.021Z" fill="#FF9D9D"/>
<path d="M272.782 72.7864H77.8129C77.0726 72.7864 76.3626 72.4925 75.8391 71.9693C75.3156 71.4461 75.0215 70.7365 75.0215 69.9966C75.0215 69.2567 75.3156 68.5471 75.8391 68.0239C76.3626 67.5007 77.0726 67.2068 77.8129 67.2068H272.782C273.522 67.2068 274.232 67.5007 274.756 68.0239C275.279 68.5471 275.573 69.2567 275.573 69.9966C275.573 70.7365 275.279 71.4461 274.756 71.9693C274.232 72.4925 273.522 72.7864 272.782 72.7864Z" fill="#FF9D9D"/>
<path d="M272.782 102.552H77.8129C77.0726 102.552 76.3626 102.258 75.8391 101.735C75.3156 101.211 75.0215 100.502 75.0215 99.762C75.0215 99.0221 75.3156 98.3125 75.8391 97.7893C76.3626 97.2661 77.0726 96.9722 77.8129 96.9722H272.782C273.522 96.9722 274.232 97.2661 274.756 97.7893C275.279 98.3125 275.573 99.0221 275.573 99.762C275.573 100.502 275.279 101.211 274.756 101.735C274.232 102.258 273.522 102.552 272.782 102.552Z" fill="#E6E6E6"/>
<path d="M272.782 102.552H77.8129C77.0726 102.552 76.3626 102.258 75.8391 101.735C75.3156 101.211 75.0215 100.502 75.0215 99.762C75.0215 99.0221 75.3156 98.3125 75.8391 97.7893C76.3626 97.2661 77.0726 96.9722 77.8129 96.9722H272.782C273.522 96.9722 274.232 97.2661 274.756 97.7893C275.279 98.3125 275.573 99.0221 275.573 99.762C275.573 100.502 275.279 101.211 274.756 101.735C274.232 102.258 273.522 102.552 272.782 102.552Z" fill="#FF9D9D"/>
<path d="M193.596 76.2028C193.627 77.0431 193.842 77.8665 194.226 78.6148C194.61 79.3631 195.153 80.0182 195.818 80.5339C196.482 81.0497 197.252 81.4135 198.073 81.5998C198.893 81.7861 199.744 81.7903 200.567 81.6122L211.212 99.0659L215.743 89.4573L204.939 74.356C204.548 72.9953 203.671 71.8251 202.475 71.0672C201.278 70.3094 199.845 70.0166 198.447 70.2442C197.049 70.4718 195.783 71.2041 194.889 72.3024C193.995 73.4006 193.535 74.7884 193.596 76.2028H193.596Z" fill="#FFB6B6"/>
<path d="M273.483 126.224L236.797 106.336L225.225 95.486C225.225 95.486 220.195 94.1399 222.046 92.5052C223.898 90.8705 218.621 89.2939 218.621 89.2939L212.41 83.4692L203.583 89.7113L206.137 93.669C206.137 93.669 205.961 100.221 209.553 98.9603C213.144 97.6998 212.246 103.134 212.246 103.134L233.682 136.342L273.483 126.224Z" fill="#3F3D56"/>
<path d="M165.189 107.487C184.98 107.487 201.023 91.4529 201.023 71.674C201.023 51.8952 184.98 35.8613 165.189 35.8613C145.399 35.8613 129.355 51.8952 129.355 71.674C129.355 91.4529 145.399 107.487 165.189 107.487Z" fill="#FFCCCC"/>
<path d="M273.597 387.076H266.146L262.6 358.354H273.597V387.076Z" fill="#FFB6B6"/>
<path d="M277.53 399.978H272.186L271.233 394.936L268.79 399.978H254.618C253.939 399.978 253.278 399.761 252.73 399.359C252.183 398.957 251.779 398.39 251.577 397.742C251.375 397.094 251.385 396.398 251.607 395.756C251.828 395.114 252.249 394.56 252.808 394.174L264.125 386.363V381.266L276.029 381.976L277.53 399.978Z" fill="#2F2E41"/>
<path d="M214.006 387.076H206.555L203.009 358.354H214.006V387.076Z" fill="#FFB6B6"/>
<path d="M217.938 399.978H212.595L211.641 394.936L209.199 399.978H195.027C194.348 399.978 193.686 399.761 193.139 399.359C192.592 398.957 192.188 398.39 191.986 397.742C191.783 397.094 191.794 396.398 192.015 395.756C192.237 395.114 192.658 394.56 193.217 394.174L204.534 386.363V381.266L216.437 381.976L217.938 399.978Z" fill="#2F2E41"/>
<path d="M265.691 169.856H228.085V212.644H265.691V169.856Z" fill="#FFB6B6"/>
<path d="M228.953 190.961L222.589 198.478L211.596 221.606L183.898 287.471L178.04 301.4L182.771 326.024C182.771 326.024 183.536 343.372 183.536 346.212C183.536 351.994 188.375 355.198 188.375 355.198L191.925 373.677L226.349 372.232C226.349 372.232 225.148 351.862 217.938 346.724C210.728 341.586 207.414 314.808 207.414 314.808L203.496 302.928L241.681 257.69L241.928 273.503L242.047 281.157C242.047 281.157 236.455 330.937 242.973 340.598C249.492 350.259 243.106 349.123 243.106 349.123L243.417 369.051L284.205 369.341L275.207 311.965C275.207 311.965 270.637 308.36 273.082 304.735C275.527 301.111 270.713 296.672 270.713 296.672L272.872 251.881C272.872 251.881 270.481 244.144 273.293 243.138C276.105 242.133 273.662 235.48 273.662 235.48L274.08 226.81L265.691 199.923L228.953 190.961Z" fill="#2F2E41"/>
<path d="M266.27 169.856L270.32 157.713L273.213 153.666L274.37 142.101C274.37 110.878 267.401 116.077 267.401 116.077L263.377 105.096L244.863 104.517L233.003 115.793L223.167 119.262L219.316 139.263L226.349 160.604L228.085 172.169C224.774 178.277 225.054 175.388 227.796 179.975L260.484 188.937C272.055 192.985 272.055 182.577 269.735 179.975C267.415 177.373 266.27 169.856 266.27 169.856Z" fill="#3F3D56"/>
<path d="M251.728 100.636C261.207 100.636 268.891 92.9562 268.891 83.483C268.891 74.0097 261.207 66.3301 251.728 66.3301C242.25 66.3301 234.565 74.0097 234.565 83.483C234.565 92.9562 242.25 100.636 251.728 100.636Z" fill="#FFB6B6"/>
<path d="M274.642 106.379C274.803 106.652 274.901 106.958 274.928 107.273C274.955 107.589 274.911 107.907 274.798 108.203C274.685 108.499 274.507 108.766 274.276 108.984C274.046 109.202 273.769 109.365 273.467 109.461C271.164 110.224 269.747 112.45 268.092 114.231C266.443 116.007 263.788 117.481 261.682 116.272C259.582 115.07 259.437 111.999 257.678 110.334C255.966 108.715 253.119 108.912 251.106 110.143L251.046 110.18C250.698 110.407 250.292 110.527 249.877 110.525C249.462 110.523 249.057 110.399 248.711 110.17C248.366 109.94 248.095 109.614 247.933 109.233C247.771 108.851 247.724 108.43 247.799 108.023C248.504 104.273 249.209 100.524 249.914 96.775C248.062 101.233 245.374 105.296 241.994 108.744C241.063 109.818 239.883 110.648 238.557 111.161C237.354 111.543 236.185 110.3 235.016 110.525C237.921 107.987 247.687 91.7156 245.939 80.8393C243.885 81.0706 241.832 81.3019 239.778 81.5332C239.555 80.5618 239.08 79.6662 238.401 78.9371C238.484 79.8825 238.364 80.8347 238.048 81.7298C237.192 81.8281 236.33 81.9206 235.473 82.0189C234.281 82.1519 232.985 82.2676 231.961 81.6431C230.255 80.6023 230.203 78.1391 230.689 76.1963C232.112 70.5471 236.428 65.8231 241.71 63.3483C246.992 60.8793 248.554 66.3782 254.12 64.6204C265.113 61.1511 273.536 67.0836 276.504 78.0929C278.998 87.327 277.187 97.1277 274.642 106.379Z" fill="#DABE78"/>
<path d="M161.932 119.875L139.966 101.336C139.215 100.7 138.747 99.7936 138.664 98.814C138.581 97.8343 138.891 96.8619 139.525 96.1101L143.568 91.3254C144.203 90.575 145.111 90.1072 146.091 90.0246C147.071 89.942 148.044 90.2514 148.796 90.8849L170.763 109.425C171.514 110.06 171.982 110.967 172.065 111.946C172.147 112.926 171.838 113.898 171.204 114.65L167.161 119.435C166.525 120.185 165.618 120.653 164.638 120.736C163.657 120.818 162.684 120.509 161.932 119.875Z" fill="#3F3D56"/>
<path d="M141.118 96.4958C140.776 96.901 140.61 97.425 140.654 97.9529C140.699 98.4808 140.951 98.9695 141.355 99.3118L163.322 117.852C163.727 118.193 164.252 118.36 164.78 118.315C165.308 118.271 165.797 118.019 166.14 117.614L170.183 112.829C170.524 112.424 170.691 111.9 170.646 111.372C170.602 110.845 170.35 110.356 169.945 110.014L147.978 91.4738C147.573 91.1324 147.049 90.9657 146.521 91.0103C145.992 91.0548 145.503 91.3068 145.161 91.7112L141.118 96.4958Z" fill="white"/>
<path d="M154.014 103.703C153.938 103.81 153.838 103.897 153.722 103.958C153.606 104.02 153.477 104.053 153.346 104.056L149.895 104.135C149.784 104.138 149.674 104.118 149.57 104.078C149.467 104.038 149.372 103.978 149.292 103.902C149.212 103.825 149.147 103.734 149.103 103.632C149.058 103.531 149.034 103.422 149.031 103.311C149.028 103.2 149.048 103.09 149.088 102.986C149.128 102.883 149.188 102.789 149.265 102.708C149.341 102.628 149.433 102.564 149.534 102.519C149.636 102.474 149.745 102.45 149.856 102.448L152.114 102.396L149.89 96.5317C149.811 96.3225 149.819 96.0906 149.911 95.8869C150.003 95.6833 150.172 95.5244 150.381 95.4452C150.591 95.366 150.823 95.3729 151.027 95.4644C151.231 95.5559 151.39 95.7246 151.47 95.9334L154.117 102.913C154.164 103.039 154.181 103.175 154.166 103.309C154.15 103.443 154.103 103.572 154.027 103.684L154.014 103.703Z" fill="#FF9D9D"/>
<path d="M154.457 105.177C155.289 105.299 156.085 105.602 156.787 106.065C157.49 106.527 158.082 107.138 158.523 107.855C158.964 108.571 159.242 109.375 159.338 110.211C159.434 111.046 159.346 111.892 159.079 112.69L175.282 125.164L165.232 128.62L151.386 116.245C150.075 115.709 149.007 114.71 148.383 113.439C147.759 112.168 147.624 110.712 148.002 109.348C148.381 107.984 149.247 106.805 150.436 106.037C151.626 105.268 153.056 104.962 154.456 105.177L154.457 105.177Z" fill="#FFB6B6"/>
<path d="M238.813 111.344L197.328 136.836C197.328 136.836 180.602 130.651 183.871 127.787C187.14 124.924 176.733 122.988 176.733 122.988L165.238 115.259L158.567 123.007C158.567 123.007 159.782 135.592 161.85 133.413C163.919 131.234 167.01 137.187 167.01 137.187C167.01 137.187 167.923 143.834 173.811 142.161C179.698 140.488 195.495 158.021 195.495 158.021L246.55 138.991L238.813 111.344Z" fill="#3F3D56"/>
<path d="M163.929 86.0398C163.448 86.0398 162.974 85.9279 162.544 85.7129C162.114 85.4979 161.74 85.1857 161.451 84.8011L153.853 74.6765C153.609 74.3512 153.432 73.9811 153.331 73.5872C153.23 73.1934 153.207 72.7835 153.265 72.381C153.323 71.9785 153.459 71.5913 153.666 71.2415C153.873 70.8916 154.148 70.586 154.473 70.3421C155.13 69.8494 155.957 69.6379 156.77 69.7541C157.173 69.8116 157.56 69.9478 157.91 70.155C158.26 70.3621 158.566 70.6362 158.81 70.9614L163.781 77.5847L176.548 58.4461C177.003 57.7629 177.712 57.2886 178.518 57.1275C179.323 56.9665 180.16 57.1319 180.844 57.5874C181.527 58.0429 182.002 58.7511 182.163 59.5563C182.324 60.3615 182.159 61.1977 181.703 61.881L166.507 84.6611C166.232 85.073 165.863 85.4132 165.429 85.6529C164.996 85.8926 164.511 86.025 164.015 86.0389C163.987 86.0393 163.958 86.0398 163.929 86.0398Z" fill="white"/>
</svg>
