<svg width="638" height="382" viewBox="0 0 638 382" fill="none" xmlns="http://www.w3.org/2000/svg">
<g clip-path="url(#clip0_142_184)">
<path d="M457.967 381.164H190.3V106.124C190.3 47.6068 237.836 0 296.266 0H352C410.43 0 457.967 47.6068 457.967 106.124V381.164Z" fill="#F2F2F2"/>
<path d="M402.233 381.164H190.3V106.124C190.241 83.7014 197.331 61.8458 210.537 43.7389C211.024 43.0744 211.509 42.4185 212.01 41.7698C218.397 33.3799 225.999 25.991 234.563 19.847C235.047 19.4945 235.532 19.1481 236.025 18.8016C243.192 13.8351 250.944 9.775 259.105 6.71383C259.59 6.52987 260.083 6.34554 260.576 6.16875C267.958 3.53077 275.609 1.72376 283.389 0.7811C283.872 0.715112 284.367 0.663476 284.862 0.611839C292.444 -0.20004 300.091 -0.20004 307.673 0.611839C308.166 0.663476 308.662 0.715106 309.15 0.781806C316.928 1.72453 324.577 3.53131 331.957 6.16878C332.45 6.34558 332.944 6.52989 333.43 6.71422C341.49 9.73676 349.151 13.7363 356.241 18.6234C356.734 18.9623 357.227 19.3087 357.713 19.6551C362.513 23.0869 367.022 26.9101 371.194 31.0856C374.539 34.4349 377.657 38.005 380.525 41.772C381.024 42.4186 381.51 43.0745 381.996 43.7379C395.202 61.8449 402.292 83.701 402.233 106.124V381.164Z" fill="#FF9D9D"/>
<path d="M385 258.149C391.48 258.149 396.733 252.888 396.733 246.398C396.733 239.908 391.48 234.647 385 234.647C378.52 234.647 373.267 239.908 373.267 246.398C373.267 252.888 378.52 258.149 385 258.149Z" fill="white"/>
<path d="M436.039 372.926H427.049L422.771 338.196L436.041 338.197L436.039 372.926Z" fill="#FFB8B8"/>
<path d="M420.627 370.354H437.965V381.287H409.709C409.709 379.851 409.992 378.429 410.541 377.103C411.089 375.776 411.893 374.571 412.907 373.556C413.921 372.541 415.124 371.735 416.449 371.186C417.773 370.636 419.193 370.354 420.627 370.354Z" fill="#2F2E41"/>
<path d="M480.773 372.926H471.782L467.504 338.196L480.774 338.197L480.773 372.926Z" fill="#FFB8B8"/>
<path d="M465.36 370.354H482.699V381.287H454.443C454.443 379.851 454.725 378.429 455.274 377.103C455.823 375.776 456.627 374.571 457.64 373.556C458.654 372.541 459.858 371.735 461.182 371.186C462.507 370.636 463.926 370.354 465.36 370.354Z" fill="#2F2E41"/>
<path d="M390.938 248.725C390.291 247.771 389.861 246.686 389.679 245.547C389.496 244.409 389.564 243.244 389.88 242.134C390.195 241.025 390.749 239.998 391.504 239.127C392.258 238.255 393.194 237.56 394.246 237.09L424.808 152.729L439.847 160.949L404.951 241.566C405.623 243.388 405.603 245.393 404.897 247.202C404.191 249.01 402.847 250.497 401.12 251.379C399.392 252.262 397.402 252.479 395.525 251.99C393.649 251.501 392.017 250.339 390.938 248.725Z" fill="#FFB8B8"/>
<path d="M476.18 264.577C475.181 264.004 474.32 263.218 473.657 262.274C472.994 261.331 472.545 260.254 472.343 259.119C472.141 257.983 472.19 256.817 472.486 255.702C472.782 254.588 473.319 253.552 474.059 252.668L464.591 163.429L481.705 164.212L485.64 251.99C487.041 253.332 487.902 255.143 488.059 257.079C488.216 259.014 487.659 260.94 486.493 262.492C485.327 264.043 483.633 265.112 481.732 265.497C479.831 265.881 477.856 265.554 476.18 264.577Z" fill="#FFB8B8"/>
<path d="M448.878 137.105C458.825 137.105 466.889 129.029 466.889 119.066C466.889 109.104 458.825 101.028 448.878 101.028C438.93 101.028 430.866 109.104 430.866 119.066C430.866 129.029 438.93 137.105 448.878 137.105Z" fill="#FFB8B8"/>
<path d="M476.065 244.282H421.764L421.829 243.859C421.927 243.226 431.507 180.376 424.441 159.815C423.732 157.794 423.795 155.582 424.616 153.605C425.438 151.628 426.961 150.025 428.892 149.104H428.892C438.992 144.341 458.378 138.476 474.74 152.71C477.148 154.839 479.028 157.499 480.232 160.482C481.436 163.464 481.931 166.686 481.677 169.892L476.065 244.282Z" fill="white"/>
<path d="M432.193 189.664L407.746 184.697L419.206 157.502C419.891 154.868 421.592 152.614 423.935 151.234C426.278 149.854 429.072 149.461 431.704 150.142C434.336 150.822 436.591 152.52 437.974 154.863C439.357 157.207 439.756 160.004 439.083 162.641L432.193 189.664Z" fill="white"/>
<path d="M463.504 198.887L462.034 165.147C460.919 158.804 464.545 152.808 470.121 151.828C475.698 150.852 481.144 155.251 482.263 161.64L487.788 193.167L463.504 198.887Z" fill="white"/>
<path d="M474.259 240.242C482.996 273.568 483.949 315.938 481.592 362.156L469.859 360.687L448.592 272.557L436.859 362.156L423.659 361.421C419.715 312.928 415.875 271.297 422.192 243.914L474.259 240.242Z" fill="#2F2E41"/>
<path d="M460.745 133.006C457.385 136.591 451.145 134.667 450.707 129.77C450.673 129.39 450.675 129.007 450.715 128.627C450.941 126.458 452.192 124.489 451.892 122.198C451.824 121.628 451.612 121.085 451.276 120.62C448.599 117.029 442.313 122.226 439.786 118.976C438.237 116.982 440.058 113.844 438.869 111.616C437.3 108.676 432.651 110.126 429.736 108.516C426.493 106.725 426.687 101.741 428.822 98.7098C431.426 95.013 435.991 93.0404 440.499 92.7561C445.007 92.4718 449.484 93.6923 453.693 95.335C458.475 97.2014 463.218 99.7808 466.16 103.992C469.739 109.113 470.084 115.998 468.294 121.987C467.205 125.629 463.489 130.079 460.745 133.006Z" fill="#2F2E41"/>
<path d="M343.933 301.479H248.6C247.344 301.486 246.138 300.994 245.244 300.111C244.35 299.227 243.843 298.025 243.833 296.768V83.6618C243.843 82.4044 244.35 81.2023 245.244 80.319C246.138 79.4357 247.344 78.9435 248.6 78.9503H343.933C345.189 78.9435 346.396 79.4357 347.289 80.319C348.183 81.2023 348.69 82.4044 348.7 83.6618V296.768C348.69 298.025 348.183 299.227 347.289 300.111C346.396 300.994 345.189 301.486 343.933 301.479Z" fill="white"/>
<path d="M348.7 147.904H243.833V149.373H348.7V147.904Z" fill="#CCCCCC"/>
<path d="M349.067 231.709H244.2V233.178H349.067V231.709Z" fill="#CCCCCC"/>
<path d="M278.3 78.9502H276.833V302.214H278.3V78.9502Z" fill="#CCCCCC"/>
<path d="M314.967 78.9502H313.5V302.214H314.967V78.9502Z" fill="#CCCCCC"/>
</g>
<defs>
<clipPath id="clip0_142_184">
<rect width="638" height="382" fill="white"/>
</clipPath>
</defs>
</svg>
