<svg width="66" height="66" viewBox="0 0 66 66" fill="none" xmlns="http://www.w3.org/2000/svg">
<path d="M46.75 46.75H42.4627L15.7878 17.3993C15.5299 17.1159 15.2157 16.8895 14.8652 16.7346C14.5148 16.5798 14.1359 16.4999 13.7527 16.5H5.5V22H12.5373L23.7847 34.375L12.5373 46.7527H5.5V52.2527H13.7527C14.1359 52.2529 14.5148 52.173 14.8652 52.0181C15.2157 51.8633 15.5299 51.6369 15.7878 51.3535L27.5 38.4643L39.2122 51.3507C39.4701 51.6341 39.7843 51.8605 40.1348 52.0154C40.4852 52.1702 40.8641 52.2501 41.2472 52.25H46.75V60.5L60.5 49.5L46.75 38.5V46.75Z" fill="white"/>
<path d="M42.4627 22H46.7499V30.25L60.4999 19.4205L46.7499 8.25V16.5H41.2472C40.8641 16.4999 40.4851 16.5798 40.1347 16.7346C39.7843 16.8895 39.47 17.1159 39.2122 17.3993L29.9502 27.5935L34.0202 31.295L42.4627 22Z" fill="white"/>
</svg>
