<svg width="566" height="355" viewBox="0 0 566 355" fill="none" xmlns="http://www.w3.org/2000/svg">
<path d="M312.999 171.194H75.2175C57.4984 171.174 40.5107 164.126 27.9814 151.596C15.452 139.066 8.40427 122.078 8.38428 104.358V75.2254C8.40425 57.5055 15.452 40.5171 27.9813 27.9873C40.5106 15.4574 57.4983 8.40926 75.2175 8.38916H342.13C359.849 8.40926 376.837 15.4574 389.366 27.9873C401.896 40.5171 408.943 57.5055 408.963 75.2254C408.934 100.669 398.815 125.062 380.824 143.053C362.833 161.045 338.441 171.165 312.999 171.194Z" fill="white"/>
<path d="M251.661 52.271H94.4845C93.5855 52.271 92.7234 51.9138 92.0877 51.2782C91.4521 50.6425 91.095 49.7803 91.095 48.8813C91.095 47.9823 91.4521 47.1202 92.0877 46.4845C92.7234 45.8488 93.5855 45.4917 94.4845 45.4917H251.661C252.56 45.4917 253.422 45.8488 254.057 46.4845C254.693 47.1202 255.05 47.9823 255.05 48.8813C255.05 49.7803 254.693 50.6425 254.057 51.2782C253.422 51.9138 252.56 52.271 251.661 52.271Z" fill="#FF9D9D"/>
<path d="M331.226 88.4365H94.4845C93.5855 88.4365 92.7234 88.0794 92.0877 87.4437C91.4521 86.808 91.095 85.9458 91.095 85.0469C91.095 84.1479 91.4521 83.2857 92.0877 82.65C92.7234 82.0143 93.5855 81.6572 94.4845 81.6572H331.226C332.125 81.6572 332.987 82.0143 333.623 82.65C334.258 83.2857 334.616 84.1479 334.616 85.0469C334.616 85.9458 334.258 86.808 333.623 87.4437C332.987 88.0794 332.125 88.4365 331.226 88.4365Z" fill="#FF9D9D"/>
<path d="M331.226 124.602H94.4845C93.5855 124.602 92.7234 124.244 92.0877 123.609C91.4521 122.973 91.095 122.111 91.095 121.212C91.095 120.313 91.4521 119.451 92.0877 118.815C92.7234 118.179 93.5855 117.822 94.4845 117.822H331.226C332.125 117.822 332.987 118.179 333.623 118.815C334.258 119.451 334.616 120.313 334.616 121.212C334.616 122.111 334.258 122.973 333.623 123.609C332.987 124.244 332.125 124.602 331.226 124.602Z" fill="#E6E6E6"/>
<path d="M331.226 124.602H94.4845C93.5855 124.602 92.7234 124.244 92.0877 123.609C91.4521 122.973 91.095 122.111 91.095 121.212C91.095 120.313 91.4521 119.451 92.0877 118.815C92.7234 118.179 93.5855 117.822 94.4845 117.822H331.226C332.125 117.822 332.987 118.179 333.623 118.815C334.258 119.451 334.616 120.313 334.616 121.212C334.616 122.111 334.258 122.973 333.623 123.609C332.987 124.244 332.125 124.602 331.226 124.602Z" fill="#FF9D9D"/>
<path d="M308.311 62.3946C310.479 50.5818 315.545 40.2393 324.451 31.8445C324.779 31.2265 325.338 30.7636 326.006 30.5574C326.674 30.3512 327.397 30.4184 328.016 30.7444L351.087 42.9341C351.705 43.2615 352.168 43.8206 352.374 44.4888C352.58 45.1571 352.513 45.8798 352.187 46.4985L336.047 77.0487C335.719 77.6666 335.16 78.1295 334.492 78.3358C333.824 78.542 333.101 78.4747 332.483 78.1487L309.411 65.959C308.793 65.6316 308.33 65.0725 308.124 64.4043C307.918 63.7361 307.985 63.0133 308.311 62.3946Z" fill="#FF9D9D"/>
<path d="M314.956 54.1023C315.241 47.9361 319.738 41.2648 325.332 34.4619C325.639 33.8831 326.163 33.4496 326.788 33.2565C327.414 33.0633 328.091 33.1263 328.67 33.4316L348.498 43.9077C349.077 44.2143 349.51 44.7379 349.704 45.3637C349.897 45.9896 349.834 46.6665 349.528 47.2459L335.166 74.4314C334.859 75.0102 334.336 75.4437 333.71 75.6368C333.084 75.8299 332.407 75.7669 331.828 75.4616L319.545 68.9719C316.967 67.6062 315.036 65.2736 314.176 62.486C313.316 59.6984 313.596 56.6833 314.956 54.1023Z" fill="white"/>
<path d="M338.239 58.0366L322.756 49.9109C322.511 49.7809 322.327 49.5591 322.245 49.294C322.163 49.0288 322.189 48.742 322.318 48.4962C322.447 48.2505 322.668 48.0658 322.933 47.9827C323.198 47.8996 323.485 47.9248 323.731 48.0528L339.214 56.1785C339.459 56.3085 339.643 56.5303 339.725 56.7954C339.807 57.0605 339.781 57.3474 339.652 57.5931C339.523 57.8389 339.302 58.0235 339.037 58.1066C338.772 58.1898 338.485 58.1645 338.239 58.0366Z" fill="#FF9D9D"/>
<path d="M328.836 46.6037L325.43 44.8161C325.307 44.7524 325.198 44.6651 325.109 44.5593C325.021 44.4534 324.954 44.3311 324.912 44.1993C324.871 44.0675 324.856 43.9288 324.868 43.7912C324.881 43.6537 324.92 43.5199 324.984 43.3976C325.049 43.2753 325.136 43.1668 325.242 43.0785C325.349 42.9902 325.471 42.9237 325.603 42.8828C325.735 42.842 325.874 42.8276 326.011 42.8405C326.149 42.8534 326.283 42.8934 326.405 42.958L329.811 44.7457C330.056 44.8756 330.24 45.0974 330.322 45.3626C330.404 45.6277 330.378 45.9145 330.249 46.1603C330.12 46.4061 329.899 46.5907 329.634 46.6738C329.369 46.7569 329.082 46.7317 328.836 46.6037Z" fill="#FF9D9D"/>
<path d="M333.952 66.205L318.469 58.0793C318.224 57.9495 318.04 57.7277 317.957 57.4624C317.875 57.1972 317.901 56.9101 318.031 56.6642C318.16 56.4183 318.381 56.2336 318.646 56.1505C318.911 56.0675 319.198 56.0929 319.444 56.2212L334.927 64.3469C335.173 64.4769 335.356 64.6987 335.438 64.9638C335.52 65.2289 335.494 65.5158 335.365 65.7615C335.236 66.0073 335.015 66.1919 334.75 66.2751C334.486 66.3582 334.199 66.333 333.952 66.205Z" fill="#FF9D9D"/>
<path d="M336.096 62.1205L320.613 53.9948C320.49 53.9311 320.381 53.8438 320.293 53.738C320.204 53.6321 320.137 53.5098 320.095 53.378C320.054 53.2462 320.039 53.1076 320.052 52.97C320.064 52.8324 320.103 52.6986 320.168 52.5763C320.232 52.454 320.319 52.3456 320.426 52.2572C320.532 52.1689 320.654 52.1024 320.786 52.0616C320.918 52.0207 321.057 52.0063 321.195 52.0192C321.332 52.0321 321.466 52.0721 321.588 52.1367L337.071 60.2624C337.316 60.3924 337.5 60.6142 337.582 60.8793C337.664 61.1445 337.638 61.4313 337.509 61.6771C337.38 61.9228 337.159 62.1075 336.894 62.1906C336.629 62.2737 336.342 62.2485 336.096 62.1205Z" fill="#FF9D9D"/>
<path d="M431.259 269.54H414.286V264.425C414.287 263.972 414.467 263.538 414.788 263.217C415.108 262.897 415.542 262.716 415.996 262.716H425.072C425.331 262.714 425.588 262.771 425.821 262.885C426.054 262.998 426.258 263.164 426.417 263.369L431.259 269.54Z" fill="#E6E6E6"/>
<path d="M459.71 308.757H442.737V303.643C442.738 303.19 442.918 302.755 443.239 302.435C443.559 302.114 443.993 301.934 444.446 301.934H453.523C453.782 301.931 454.039 301.989 454.272 302.102C454.505 302.216 454.709 302.382 454.868 302.587L459.71 308.757Z" fill="#E6E6E6"/>
<path d="M376.371 341.533L369.759 341.532L366.613 316.025H376.373L376.371 341.533Z" fill="#FFB6B6"/>
<path d="M356.412 351.29C356.415 352.031 356.711 352.741 357.234 353.265C357.757 353.79 358.466 354.086 359.207 354.091H371.656L372.041 353.292L373.802 349.658L374.484 353.292L374.635 354.091H379.331L379.263 353.286L378.011 338.271L376.374 338.17L369.297 337.751L367.558 337.645V342.128C366.239 343.531 355.887 348.836 356.412 351.29Z" fill="#FF9D9D"/>
<path d="M485.86 290.457L482.663 296.246L458.812 286.673L463.53 278.128L485.86 290.457Z" fill="#FFB6B6"/>
<path d="M484.756 312.647C485.406 313.002 486.17 313.086 486.882 312.882C487.594 312.677 488.196 312.2 488.558 311.553L494.574 300.654L494.061 299.931L491.731 296.633L495.241 297.792L496.014 298.046L498.283 293.935L497.546 293.605L483.796 287.445L482.917 288.83L479.13 294.823L478.197 296.294L482.122 298.461C482.712 300.294 482.354 311.921 484.756 312.647Z" fill="#FF9D9D"/>
<path d="M387.437 173.414L412.423 184.024C412.423 184.024 420.417 201.091 414.889 203.537V248.658L471.961 281.689L454.759 310.425C454.759 310.425 432.678 304.721 432.908 299.514C433.139 294.306 435.685 292.247 428.103 291.578C420.522 290.909 416.227 291.467 416.433 286.821C416.64 282.174 389.657 258.012 389.657 258.012L387.437 173.414Z" fill="white"/>
<path d="M393.423 182.077L387.087 174.959C387.087 174.959 372.857 198.325 372.911 203.124C372.964 207.924 360.832 232.674 360.832 232.674L345.789 320.998C345.789 320.998 374.805 327.896 377.039 328.087C379.273 328.278 383.041 329.455 380.672 324.984C378.303 320.513 380.672 320.513 380.672 320.513L382.127 252.51L393.423 205.738V182.077Z" fill="white"/>
<path d="M390.1 113.656L402.232 110.744L409.248 119.35C412.45 122.362 414.837 126.136 416.187 130.32C417.537 134.504 417.807 138.961 416.97 143.277L410.482 176.745C410.482 176.745 422.128 187.421 420.673 193.245C418.311 202.69 392.27 194.349 387.788 195.01C383.306 195.671 377.483 188.418 376.512 184.28C375.542 180.142 379.5 170.209 380.88 170.436C382.259 170.662 377.074 149.889 377.074 149.889C377.074 149.889 377.483 135.98 382.336 132.097C385.312 129.674 387.734 126.64 389.439 123.201L390.1 113.656Z" fill="#FF9D9D"/>
<path d="M337.428 61.1842C337.437 62.0001 337.624 62.8042 337.975 63.5409C338.325 64.2776 338.832 64.9294 339.459 65.4511C340.086 65.9728 340.82 66.352 341.608 66.5624C342.396 66.7729 343.221 66.8096 344.025 66.6701L359.296 90.233L366.852 87.6112L348.509 59.7578C348.173 58.4221 347.36 57.2559 346.222 56.4802C345.084 55.7045 343.701 55.3732 342.335 55.549C340.969 55.7248 339.715 56.3956 338.811 57.4342C337.906 58.4728 337.414 59.8071 337.428 61.1842H337.428Z" fill="#FFB6B6"/>
<path d="M398.667 143.327C398.667 143.327 404.418 131.014 400.044 125.54C395.67 120.067 392.473 114.503 390.025 112.996C387.577 111.489 377.821 94.0383 375.362 93.5171C372.903 92.9959 374.814 90.1669 371.38 88.6485C367.947 87.1301 366.961 87.1188 366.972 86.133C366.983 85.1471 358.6 73.3091 358.6 73.3091L349.982 78.6585L371.034 121.725L398.667 143.327Z" fill="#FF9D9D"/>
<path d="M344.336 258.563C333.312 243.899 326.94 227.5 326.731 208.804C326.376 207.797 326.435 206.69 326.895 205.726C327.355 204.761 328.179 204.019 329.185 203.662L366.763 190.365C367.771 190.01 368.878 190.069 369.842 190.529C370.806 190.989 371.548 191.813 371.906 192.82L389.511 242.579C389.866 243.586 389.807 244.694 389.347 245.658C388.887 246.622 388.063 247.364 387.056 247.721L349.479 261.018C348.471 261.373 347.364 261.314 346.4 260.854C345.436 260.394 344.694 259.57 344.336 258.563Z" fill="#FF9D9D"/>
<path d="M341.901 242.514C335.271 235.81 332.432 223.852 330.583 210.524C330.25 209.581 330.305 208.544 330.736 207.641C331.167 206.738 331.939 206.043 332.882 205.708L365.176 194.281C366.12 193.948 367.157 194.003 368.06 194.434C368.963 194.865 369.658 195.637 369.993 196.58L385.659 240.858C385.992 241.802 385.936 242.839 385.505 243.742C385.075 244.645 384.303 245.34 383.36 245.675L363.354 252.754C359.151 254.235 354.532 253.99 350.51 252.07C346.489 250.15 343.392 246.714 341.901 242.514Z" fill="white"/>
<path d="M370.425 220.433L345.268 229.413C344.868 229.556 344.427 229.534 344.043 229.352C343.659 229.17 343.363 228.843 343.22 228.442C343.077 228.042 343.099 227.601 343.281 227.217C343.463 226.833 343.791 226.537 344.191 226.394L369.348 217.414C369.546 217.343 369.756 217.312 369.966 217.323C370.176 217.333 370.383 217.385 370.573 217.475C370.763 217.565 370.933 217.692 371.075 217.848C371.216 218.004 371.325 218.186 371.396 218.385C371.467 218.583 371.498 218.793 371.487 219.003C371.477 219.214 371.425 219.42 371.335 219.61C371.245 219.8 371.118 219.971 370.962 220.112C370.806 220.253 370.623 220.362 370.425 220.433Z" fill="#FF9D9D"/>
<path d="M347.848 219.159L342.314 221.135C341.913 221.277 341.474 221.254 341.09 221.072C340.707 220.89 340.411 220.563 340.269 220.163C340.126 219.763 340.148 219.323 340.329 218.94C340.51 218.556 340.837 218.26 341.236 218.116L346.77 216.14C347.171 215.999 347.611 216.021 347.994 216.203C348.377 216.386 348.673 216.712 348.815 217.112C348.958 217.512 348.936 217.952 348.755 218.336C348.574 218.72 348.248 219.016 347.848 219.159Z" fill="#FF9D9D"/>
<path d="M375.162 233.705L350.005 242.685C349.807 242.756 349.597 242.787 349.387 242.776C349.177 242.766 348.971 242.714 348.78 242.624C348.59 242.534 348.42 242.407 348.278 242.251C348.137 242.095 348.028 241.913 347.957 241.714C347.887 241.516 347.856 241.306 347.866 241.096C347.876 240.886 347.928 240.679 348.018 240.489C348.109 240.299 348.235 240.128 348.391 239.987C348.547 239.846 348.73 239.737 348.928 239.666L374.085 230.686C374.283 230.615 374.493 230.584 374.703 230.595C374.914 230.605 375.12 230.657 375.31 230.747C375.5 230.837 375.671 230.964 375.812 231.12C375.953 231.276 376.062 231.459 376.133 231.657C376.204 231.855 376.235 232.065 376.224 232.275C376.214 232.486 376.162 232.692 376.072 232.882C375.982 233.072 375.855 233.243 375.699 233.384C375.543 233.525 375.36 233.634 375.162 233.705Z" fill="#FF9D9D"/>
<path d="M372.794 227.069L347.637 236.049C347.439 236.12 347.229 236.151 347.018 236.14C346.808 236.13 346.602 236.078 346.412 235.988C346.222 235.898 346.051 235.771 345.91 235.615C345.769 235.459 345.66 235.276 345.589 235.078C345.518 234.88 345.487 234.67 345.498 234.459C345.508 234.249 345.56 234.043 345.65 233.853C345.74 233.663 345.867 233.492 346.023 233.351C346.179 233.21 346.361 233.101 346.559 233.03L371.716 224.05C372.117 223.907 372.557 223.929 372.941 224.111C373.325 224.293 373.622 224.62 373.764 225.02C373.907 225.421 373.885 225.862 373.703 226.246C373.521 226.63 373.194 226.926 372.794 227.069Z" fill="#FF9D9D"/>
<path d="M391.571 109.268C398.765 109.268 404.597 103.436 404.597 96.2421C404.597 89.0482 398.765 83.2163 391.571 83.2163C384.378 83.2163 378.546 89.0482 378.546 96.2421C378.546 103.436 384.378 109.268 391.571 109.268Z" fill="#FFB6B6"/>
<path d="M377.875 94.5422C378.567 95.0031 379.391 95.2233 380.221 95.1687C380.412 94.1716 380.442 93.1504 380.311 92.1437C380.805 93.0471 381.177 94.0122 381.416 95.0135C383.732 94.5078 383.63 93.8188 386.016 94.1794C386.672 94.3176 387.292 94.5892 387.838 94.9774C388.384 95.3656 388.845 95.8621 389.191 96.4359C389.537 97.0097 389.761 97.6485 389.849 98.3127C389.938 98.9769 389.889 99.6522 389.705 100.297C390.211 99.1895 392.311 99.6927 392.665 100.96C393.035 102.293 392.222 103.64 391.443 104.785C388.664 108.875 395.852 116.414 393.073 120.504L392.686 120.967C395.116 119.702 397.415 118.2 399.55 116.483C399.185 114.867 399.122 113.198 399.363 111.559C399.665 112.909 400.404 114.122 401.466 115.009C409.331 108.841 418.791 99.963 417.051 97.8084L411.757 88.4763C406.194 78.6732 392.775 74.7352 384.462 82.3472C384.244 82.5501 383.752 82.4156 383.533 82.6293C381.145 83.2482 378.087 84.3695 376.527 86.2788C374.972 88.1912 375.833 93.1638 377.875 94.5422Z" fill="#DABE78"/>
<path d="M388.065 195.415C377.468 189.764 369.151 181.798 363.856 170.763C363.366 170.264 363.095 169.591 363.101 168.891C363.108 168.192 363.391 167.524 363.89 167.033L382.506 148.749C383.006 148.26 383.679 147.988 384.378 147.995C385.077 148.001 385.746 148.284 386.236 148.783L410.445 173.434C410.935 173.934 411.206 174.607 411.2 175.306C411.194 176.006 410.91 176.674 410.412 177.165L391.795 195.449C391.296 195.938 390.622 196.209 389.923 196.203C389.224 196.197 388.556 195.913 388.065 195.415Z" fill="#FF9D9D"/>
<path d="M382.181 186.567C376.393 184.423 371.401 178.114 366.617 170.718C366.159 170.251 365.905 169.62 365.911 168.965C365.916 168.31 366.182 167.684 366.649 167.225L382.648 151.511C383.116 151.053 383.746 150.799 384.401 150.805C385.056 150.811 385.682 151.076 386.141 151.543L407.684 173.479C408.143 173.947 408.397 174.578 408.391 175.233C408.385 175.888 408.12 176.513 407.653 176.973L397.741 186.707C395.658 188.749 392.849 189.881 389.932 189.855C387.015 189.828 384.227 188.646 382.181 186.567Z" fill="white"/>
<path d="M392.996 165.575L380.555 177.862C380.457 177.959 380.341 178.036 380.213 178.088C380.085 178.14 379.949 178.166 379.811 178.165C379.673 178.165 379.537 178.137 379.41 178.083C379.283 178.03 379.168 177.952 379.071 177.853C378.974 177.755 378.897 177.639 378.845 177.512C378.793 177.384 378.767 177.247 378.768 177.109C378.769 176.972 378.797 176.835 378.851 176.708C378.904 176.581 378.982 176.466 379.08 176.369L391.522 164.082C391.62 163.985 391.736 163.909 391.864 163.857C391.991 163.805 392.128 163.778 392.266 163.779C392.403 163.78 392.54 163.808 392.667 163.862C392.794 163.915 392.909 163.993 393.006 164.091C393.103 164.189 393.179 164.305 393.231 164.433C393.283 164.561 393.309 164.697 393.308 164.835C393.308 164.973 393.279 165.109 393.226 165.236C393.172 165.363 393.094 165.479 392.996 165.575Z" fill="#FF9D9D"/>
<path d="M379.249 171.065L376.512 173.768C376.314 173.964 376.046 174.073 375.768 174.071C375.49 174.069 375.224 173.957 375.028 173.759C374.833 173.561 374.724 173.293 374.726 173.015C374.727 172.737 374.84 172.471 375.038 172.275L377.775 169.572C377.873 169.475 377.989 169.398 378.116 169.346C378.244 169.293 378.381 169.267 378.519 169.268C378.657 169.268 378.793 169.296 378.921 169.35C379.048 169.403 379.163 169.481 379.26 169.58C379.357 169.678 379.434 169.794 379.486 169.922C379.538 170.05 379.564 170.187 379.563 170.325C379.562 170.463 379.533 170.599 379.48 170.726C379.426 170.853 379.347 170.968 379.249 171.065Z" fill="#FF9D9D"/>
<path d="M399.478 172.139L387.036 184.426C386.938 184.523 386.822 184.599 386.695 184.651C386.567 184.703 386.43 184.73 386.293 184.729C386.155 184.728 386.018 184.7 385.891 184.647C385.764 184.593 385.649 184.515 385.552 184.417C385.456 184.319 385.379 184.203 385.327 184.075C385.275 183.947 385.249 183.811 385.25 183.673C385.251 183.535 385.279 183.399 385.332 183.272C385.386 183.145 385.464 183.03 385.562 182.933L398.003 170.646C398.101 170.549 398.218 170.472 398.345 170.42C398.473 170.368 398.609 170.342 398.747 170.343C398.885 170.344 399.021 170.372 399.148 170.425C399.275 170.479 399.391 170.557 399.487 170.655C399.584 170.753 399.661 170.869 399.713 170.997C399.765 171.124 399.791 171.261 399.79 171.399C399.789 171.537 399.761 171.673 399.708 171.8C399.654 171.927 399.576 172.042 399.478 172.139Z" fill="#6C63FF"/>
<path d="M396.237 168.857L383.796 181.144C383.698 181.241 383.582 181.318 383.454 181.37C383.326 181.423 383.189 181.449 383.051 181.448C382.913 181.448 382.777 181.42 382.65 181.366C382.523 181.313 382.407 181.235 382.31 181.136C382.213 181.038 382.137 180.922 382.085 180.794C382.033 180.666 382.007 180.529 382.008 180.391C382.009 180.253 382.037 180.117 382.091 179.99C382.144 179.863 382.223 179.748 382.321 179.651L394.763 167.364C394.961 167.169 395.228 167.06 395.506 167.062C395.785 167.063 396.051 167.176 396.246 167.373C396.442 167.571 396.55 167.839 396.549 168.117C396.547 168.395 396.435 168.661 396.237 168.857V168.857Z" fill="#FF9D9D"/>
<path d="M369.565 220.947C369.411 220.145 369.432 219.32 369.628 218.528C369.824 217.736 370.19 216.996 370.7 216.359C371.21 215.722 371.852 215.204 372.582 214.839C373.312 214.475 374.112 214.274 374.928 214.249L385.164 188.103L393.092 189.156L380.707 220.122C380.647 221.498 380.083 222.803 379.124 223.792C378.165 224.78 376.876 225.382 375.503 225.483C374.129 225.585 372.766 225.179 371.672 224.343C370.578 223.507 369.828 222.299 369.565 220.947Z" fill="#FFB6B6"/>
<path d="M413.089 128.191C413.089 128.191 421.192 139.101 418.005 145.341C414.817 151.58 412.8 157.672 410.705 159.639C408.609 161.606 402.55 180.659 400.245 181.663C397.941 182.667 400.38 185.055 397.321 187.231C394.261 189.407 393.298 189.616 393.507 190.58C393.715 191.543 387.876 204.822 387.876 204.822L378.361 201.31L398.623 130.827L413.089 128.191Z" fill="#FF9D9D"/>
<path d="M191.453 153.318C185.419 142.934 182.542 131.782 183.849 119.613C183.696 118.931 183.82 118.216 184.194 117.624C184.567 117.033 185.16 116.614 185.842 116.46L211.296 110.717C211.978 110.564 212.693 110.688 213.284 111.061C213.875 111.435 214.294 112.027 214.449 112.709L222.053 146.414C222.206 147.097 222.082 147.812 221.708 148.403C221.335 148.994 220.742 149.413 220.06 149.568L194.607 155.31C193.924 155.464 193.209 155.34 192.618 154.966C192.027 154.593 191.608 154 191.453 153.318Z" fill="#FF9D9D"/>
<path d="M191.109 142.697C187.316 137.827 186.394 129.835 186.221 121.029C186.077 120.39 186.193 119.72 186.543 119.166C186.893 118.613 187.448 118.22 188.087 118.076L209.962 113.14C210.601 112.997 211.271 113.113 211.824 113.462C212.378 113.812 212.77 114.367 212.915 115.006L219.682 144.999C219.825 145.638 219.709 146.308 219.359 146.861C219.009 147.415 218.454 147.807 217.815 147.952L204.264 151.01C201.418 151.648 198.434 151.132 195.968 149.574C193.502 148.015 191.754 145.542 191.109 142.697Z" fill="white"/>
<path d="M199.618 126.142C200.064 125.628 200.664 125.271 201.328 125.126C201.993 124.982 202.687 125.056 203.306 125.338C203.925 125.666 204.421 126.187 204.718 126.822C205.016 127.457 205.1 128.171 204.957 128.857C204.717 130.443 203.888 131.888 203.813 133.512C203.745 134.223 203.869 134.94 204.173 135.587C204.476 136.235 204.947 136.789 205.536 137.192C206.44 137.741 207.369 136.383 206.462 135.831C204.968 134.924 205.47 132.93 205.903 131.57C206.444 129.872 207.008 128.14 206.339 126.39C206.043 125.658 205.567 125.011 204.957 124.509C204.346 124.008 203.619 123.667 202.843 123.519C202.067 123.371 201.266 123.42 200.513 123.661C199.761 123.903 199.081 124.329 198.536 124.901C197.823 125.67 198.896 126.92 199.618 126.142Z" fill="#FF9D9D"/>
<path d="M206.867 141.936C207.776 141.936 208.513 141.199 208.513 140.29C208.513 139.381 207.776 138.644 206.867 138.644C205.958 138.644 205.221 139.381 205.221 140.29C205.221 141.199 205.958 141.936 206.867 141.936Z" fill="#FF9D9D"/>
<path d="M45.9639 81.6333C39.9293 71.2497 37.0529 60.0979 38.3602 47.9286C38.2071 47.2463 38.3309 46.531 38.7044 45.9398C39.0779 45.3486 39.6707 44.9297 40.3527 44.7751L65.8063 39.0324C66.4886 38.8792 67.2038 39.003 67.795 39.3766C68.3862 39.7501 68.805 40.3429 68.9597 41.0249L76.5634 74.7296C76.7165 75.412 76.5928 76.1272 76.2192 76.7184C75.8457 77.3096 75.2529 77.7285 74.571 77.8832L49.1174 83.6259C48.435 83.7791 47.7198 83.6553 47.1286 83.2817C46.5374 82.9082 46.1186 82.3154 45.9639 81.6333Z" fill="#FF9D9D"/>
<path d="M45.6198 71.0123C41.827 66.1423 40.905 58.1501 40.7314 49.3439C40.588 48.7048 40.7039 48.035 41.0537 47.4813C41.4036 46.9276 41.9587 46.5353 42.5974 46.3904L64.4727 41.4551C65.1117 41.3116 65.7815 41.4275 66.3352 41.7774C66.8889 42.1272 67.2812 42.6824 67.4261 43.3211L74.1924 73.3137C74.3358 73.9528 74.2198 74.6227 73.87 75.1764C73.5201 75.73 72.9649 76.1224 72.3262 76.2672L58.775 79.3246C55.9285 79.9634 52.9449 79.447 50.4787 77.8887C48.0124 76.3304 46.265 73.8574 45.6198 71.0123Z" fill="white"/>
<path d="M57.0534 73.2984C58.3274 73.2984 59.3602 72.2655 59.3602 70.9915C59.3602 69.7174 58.3274 68.6846 57.0534 68.6846C55.7794 68.6846 54.7466 69.7174 54.7466 70.9915C54.7466 72.2655 55.7794 73.2984 57.0534 73.2984Z" fill="#FF9D9D"/>
<path d="M59.8101 49.0815C58.9222 48.0404 57.2976 48.2059 55.9536 48.462C54.5571 48.6649 53.1938 49.0531 51.8999 49.6161C51.2537 49.9013 50.6704 50.3116 50.1835 50.8233C49.6967 51.3351 49.316 51.9381 49.0634 52.5978C48.5265 54.2443 49.1112 56.0335 49.8125 57.6169C51.1626 60.6625 52.9548 63.4922 55.1311 66.0146L56.2307 66.5239C57.9415 64.3444 59.1989 61.8447 59.9289 59.1718C60.6589 56.499 60.8468 53.7071 60.4815 50.9606C60.4397 50.2833 60.2069 49.6318 59.8101 49.0815Z" fill="#FF9D9D"/>
</svg>
