<svg width="352" height="340" viewBox="0 0 352 340" fill="none" xmlns="http://www.w3.org/2000/svg">
<g clip-path="url(#clip0_158_1196)">
<path d="M296.828 195.719C300.694 181.7 307.904 169.759 319.546 160.573C320.006 159.862 320.731 159.363 321.559 159.185C322.388 159.007 323.254 159.164 323.966 159.623L350.538 176.761C351.25 177.221 351.75 177.944 351.928 178.772C352.107 179.6 351.949 180.464 351.49 181.176L328.772 216.322C328.312 217.033 327.588 217.532 326.759 217.71C325.93 217.889 325.065 217.731 324.352 217.273L297.78 200.135C297.068 199.675 296.569 198.951 296.39 198.124C296.212 197.296 296.369 196.431 296.828 195.719Z" fill="#F2F2F2"/>
<path d="M305.728 186.417C306.724 179.01 312.858 171.438 320.333 163.822C320.764 163.157 321.442 162.689 322.218 162.522C322.994 162.355 323.805 162.503 324.472 162.932L347.309 177.661C347.975 178.092 348.443 178.769 348.611 179.544C348.778 180.32 348.63 181.129 348.2 181.796L327.985 213.071C327.553 213.737 326.875 214.205 326.099 214.371C325.323 214.538 324.512 214.391 323.845 213.962L309.698 204.837C306.729 202.918 304.644 199.901 303.9 196.447C303.155 192.994 303.813 189.387 305.728 186.417Z" fill="white"/>
<path d="M307.766 216.62C304.394 202.474 304.956 188.54 310.73 174.889C310.791 174.045 311.185 173.259 311.825 172.704C312.465 172.149 313.3 171.871 314.145 171.93L345.696 174.166C346.541 174.227 347.328 174.62 347.883 175.26C348.439 175.899 348.718 176.733 348.659 177.578L345.694 219.308C345.633 220.153 345.24 220.939 344.599 221.494C343.959 222.048 343.124 222.327 342.279 222.268L310.729 220.032C309.883 219.971 309.096 219.577 308.541 218.938C307.985 218.298 307.707 217.465 307.766 216.62Z" fill="#F2F2F2"/>
<path d="M311.081 204.187C308.383 197.216 310.108 187.629 312.987 177.359C313.044 176.568 313.413 175.832 314.013 175.313C314.612 174.793 315.394 174.532 316.186 174.587L343.301 176.509C344.092 176.566 344.829 176.935 345.35 177.534C345.87 178.133 346.131 178.913 346.076 179.705L343.438 216.839C343.381 217.63 343.012 218.366 342.412 218.886C341.812 219.405 341.031 219.666 340.239 219.611L323.442 218.42C319.915 218.166 316.633 216.525 314.315 213.857C311.998 211.189 310.835 207.711 311.081 204.187Z" fill="white"/>
<path d="M310.486 129.29L296.969 79.3163C296.39 77.2008 295.002 75.3975 293.104 74.2955C291.205 73.1935 288.95 72.8812 286.823 73.426C285.723 73.7078 284.691 74.2105 283.792 74.9034C282.893 75.5964 282.144 76.465 281.592 77.4564C281.039 78.4477 280.695 79.5411 280.58 80.6698C280.464 81.7985 280.58 82.9388 280.92 84.0213L296.553 135.502L304.733 167.183C303.541 168.092 302.659 169.345 302.205 170.772C301.752 172.199 301.749 173.73 302.197 175.159C302.646 176.588 303.523 177.844 304.711 178.757C305.899 179.67 307.34 180.195 308.837 180.262C310.334 180.329 311.816 179.934 313.081 179.13C314.345 178.326 315.331 177.153 315.905 175.77C316.479 174.387 316.613 172.861 316.289 171.399C315.964 169.938 315.197 168.611 314.091 167.6L310.486 129.29Z" fill="#FFB6B6"/>
<path d="M213.007 137.936L226.869 88.0567C227.45 85.9417 227.175 83.6834 226.104 81.769C225.032 79.8546 223.251 78.4377 221.143 77.824C220.052 77.5066 218.909 77.4142 217.781 77.5527C216.654 77.6912 215.567 78.0575 214.586 78.6294C213.605 79.2013 212.751 79.9668 212.076 80.8792C211.401 81.7916 210.919 82.8317 210.659 83.9363L197.851 136.189L188.728 167.613C187.239 167.788 185.841 168.417 184.723 169.414C183.605 170.411 182.821 171.728 182.478 173.185C182.135 174.643 182.249 176.17 182.806 177.561C183.362 178.951 184.334 180.136 185.588 180.956C186.842 181.775 188.319 182.189 189.817 182.141C191.315 182.094 192.762 181.586 193.961 180.688C195.161 179.79 196.054 178.545 196.52 177.122C196.987 175.7 197.003 174.168 196.568 172.735L213.007 137.936Z" fill="#FFB6B6"/>
<path d="M292.329 329.536L283.496 329.535L279.294 295.504L292.33 295.505L292.329 329.536Z" fill="#FFB6B6"/>
<path d="M292.639 338.74L265.478 338.739V338.396C265.478 335.596 266.592 332.91 268.574 330.929C270.557 328.949 273.246 327.836 276.05 327.836H276.05L281.012 324.076L290.268 327.837L292.639 327.837L292.639 338.74Z" fill="#2F2E41"/>
<path d="M230.171 329.626L221.476 328.076L223.319 293.836L236.153 296.123L230.171 329.626Z" fill="#FFB6B6"/>
<path d="M228.86 338.741L202.12 333.977L202.18 333.64C202.673 330.882 204.241 328.434 206.541 326.831C208.841 325.229 211.684 324.606 214.444 325.097L214.445 325.097L219.99 322.266L228.442 327.591L230.776 328.007L228.86 338.741Z" fill="#2F2E41"/>
<path d="M231.032 173.065C231.032 173.065 222.8 184.711 223.136 188.62C223.472 192.528 226.379 189.41 223.472 192.528C220.564 195.646 218.871 193.554 220.299 197.406C221.727 201.258 222.309 198.764 221.727 201.258C221.146 203.753 222.309 299.161 222.309 299.161H237.446C237.446 299.161 245.983 243.839 244.902 241.256C243.821 238.673 243.846 239.798 244.996 237.053C246.147 234.308 247.23 231.043 247.23 231.043L259.195 197.407L268.424 244.766L279.288 301.043H293.794C293.794 301.043 296.278 218.287 297.376 217.256C298.475 216.224 297.161 213.907 295.783 212.571C294.405 211.236 294.679 209.88 295.123 207.128C295.568 204.376 297.441 202.842 297.376 201.115C297.312 199.388 301.382 171.95 294.986 167.585C288.59 163.22 231.032 173.065 231.032 173.065Z" fill="#2F2E41"/>
<path d="M281.646 57.0535L264.713 52.6706L256.809 41.7812L238.039 44.0863L234.043 58.9395L220.68 66.6878C244.634 66.8308 231.734 136.154 235.255 140.627C238.12 144.266 220.954 152.925 226.334 158.449C231.714 163.972 229.725 161.762 228.477 167.776C227.228 173.789 218.128 180.153 228.477 180.09C238.825 180.027 301.272 179.136 299.487 172.007C297.703 164.878 297.731 166.688 295.041 162.219C292.351 157.749 290.54 160.247 291.445 153.651C292.351 147.056 289.41 141.955 291.459 139.036C294.603 134.556 291.434 102.218 288.47 103.081L281.646 57.0535Z" fill="white"/>
<path d="M276.812 57.2845C276.812 57.2845 289.197 52.0283 293.658 61.8305C295.083 64.9613 296.282 72.8251 297.438 71.0813C298.594 69.3374 297.479 73.1604 298.194 73.1651C298.833 73.1693 299.815 72.1375 299.072 75.6923C298.84 76.8583 298.907 78.0642 299.267 79.1974C299.627 80.3307 300.269 81.3544 301.132 82.1731L279.605 95.0517L276.812 57.2845Z" fill="white"/>
<path d="M230.275 66.1946C230.275 66.1946 217.889 60.9384 213.429 70.7407C212.174 73.4975 212.486 79.623 210.044 78.9353C207.601 78.2476 209.335 80.8387 209.013 81.7388C208.653 82.7421 210.222 85.5813 208.019 84.5878C205.817 83.5942 205.955 91.0832 205.955 91.0832L227.482 103.962L230.275 66.1946Z" fill="white"/>
<path d="M236.147 51.5156L232.579 57.7534C232.579 57.7534 222.766 63.1001 222.766 63.9912C222.766 64.8823 224.55 72.1586 222.766 77.8771C220.981 83.5957 226.171 94.3502 227.226 103.2C231.686 140.627 218.422 154.226 215.629 178.054L243.937 186.312C243.937 186.312 248.636 123.696 248.636 109.438C248.636 95.1801 236.147 51.5156 236.147 51.5156Z" fill="#2F2E41"/>
<path d="M262.018 48.8418L269.31 52.9851C269.31 52.9851 278.854 55.0869 278.968 55.9707C279.081 56.8545 279.115 66.2478 281.616 71.6919C284.117 77.1359 283.428 80.0307 290.163 96.1245C293.604 104.347 301.504 170.137 301.504 170.137L274.484 181.94C274.484 181.94 261.816 120.436 259.993 106.295C258.17 92.1541 262.018 48.8418 262.018 48.8418Z" fill="#2F2E41"/>
<path d="M243.784 40.3454C253.971 40.3454 262.229 32.0959 262.229 21.9197C262.229 11.7436 253.971 3.49414 243.784 3.49414C233.596 3.49414 225.338 11.7436 225.338 21.9197C225.338 32.0959 233.596 40.3454 243.784 40.3454Z" fill="#FFB6B6"/>
<path d="M255.923 36.2359C251.563 32.8314 257.523 17.8548 250.323 21.0515C250.323 21.0515 241.522 15.4573 239.754 19.1335C237.706 23.3902 230.425 21.4591 225.953 19.9567C226.304 19.1405 226.554 18.2843 226.697 17.4073C225.871 18.057 224.997 18.6422 224.081 19.1575C223.466 18.8296 222.923 18.3843 222.481 17.8468C222.044 17.3477 221.771 16.7272 221.698 16.0686C221.625 15.41 221.756 14.7449 222.073 14.1626C222.817 13.0198 224.353 12.6682 225.257 11.6532C225.361 11.5105 225.429 11.3445 225.456 11.1697C225.482 10.9948 225.465 10.8162 225.407 10.6492C225.299 10.2409 225.283 9.8138 225.359 9.39845C225.436 8.98309 225.603 8.58967 225.849 8.24622C226.095 7.90277 226.414 7.61773 226.783 7.41142C227.151 7.20511 227.561 7.08261 227.983 7.05263C228.153 7.0578 228.321 7.02119 228.473 6.94602C229.232 6.48199 229.933 5.92933 230.561 5.29971C229.513 5.34766 230.795 -1.06079 241.186 0.152995C243.802 0.0571021 245.168 2.93924 247.744 3.39478C253.989 -0.169671 259.563 4.97207 262.275 9.88697C264.987 14.802 267.924 30.6417 255.923 36.2359Z" fill="#2F2E41"/>
<path d="M177.216 9.80273H11.8681C8.72239 9.80535 5.70621 11.0543 3.48127 13.2756C1.25633 15.4969 0.00435309 18.5091 0 21.6513V170.48C0.0040906 173.623 1.25578 176.636 3.48059 178.858C5.7054 181.081 8.72171 182.331 11.8681 182.335H177.216C180.362 182.331 183.377 181.08 185.601 178.858C187.825 176.635 189.075 173.622 189.078 170.48V21.6513C189.075 18.5097 187.824 15.4977 185.6 13.2763C183.377 11.0548 180.361 9.8056 177.216 9.80273Z" fill="white"/>
<path d="M101.666 43.9611H84.0017C83.1341 43.9611 82.3021 43.6168 81.6886 43.004C81.0751 42.3912 80.7305 41.5601 80.7305 40.6934C80.7305 39.8268 81.0751 38.9957 81.6886 38.3829C82.3021 37.77 83.1341 37.4258 84.0017 37.4258H101.666C102.534 37.4258 103.366 37.77 103.98 38.3829C104.593 38.9957 104.938 39.8268 104.938 40.6934C104.938 41.5601 104.593 42.3912 103.98 43.004C103.366 43.6168 102.534 43.9611 101.666 43.9611Z" fill="#2F2E41"/>
<path d="M335.887 194.1H318.222C317.355 194.1 316.523 193.755 315.909 193.143C315.296 192.53 314.951 191.699 314.951 190.832C314.951 189.965 315.296 189.134 315.909 188.522C316.523 187.909 317.355 187.564 318.222 187.564H335.887C336.755 187.564 337.587 187.909 338.2 188.522C338.814 189.134 339.158 189.965 339.158 190.832C339.158 191.699 338.814 192.53 338.2 193.143C337.587 193.755 336.755 194.1 335.887 194.1Z" fill="#2F2E41"/>
<path d="M147.463 112.408H38.2039C37.3363 112.408 36.5042 112.064 35.8907 111.451C35.2773 110.838 34.9326 110.007 34.9326 109.141C34.9326 108.274 35.2773 107.443 35.8907 106.83C36.5042 106.217 37.3363 105.873 38.2039 105.873H147.463C148.331 105.873 149.163 106.217 149.777 106.83C150.39 107.443 150.735 108.274 150.735 109.141C150.735 110.007 150.39 110.838 149.777 111.451C149.163 112.064 148.331 112.408 147.463 112.408Z" fill="#E6E6E6"/>
<path d="M147.463 133.975H38.2039C37.3363 133.975 36.5042 133.63 35.8907 133.018C35.2773 132.405 34.9326 131.574 34.9326 130.707C34.9326 129.84 35.2773 129.009 35.8907 128.397C36.5042 127.784 37.3363 127.439 38.2039 127.439H147.463C148.331 127.439 149.163 127.784 149.777 128.397C150.39 129.009 150.735 129.84 150.735 130.707C150.735 131.574 150.39 132.405 149.777 133.018C149.163 133.63 148.331 133.975 147.463 133.975Z" fill="#E6E6E6"/>
<path d="M147.463 155.541H38.2039C37.3363 155.541 36.5042 155.197 35.8907 154.584C35.2773 153.971 34.9326 153.14 34.9326 152.274C34.9326 151.407 35.2773 150.576 35.8907 149.963C36.5042 149.35 37.3363 149.006 38.2039 149.006H147.463C148.331 149.006 149.163 149.35 149.777 149.963C150.39 150.576 150.735 151.407 150.735 152.274C150.735 153.14 150.39 153.971 149.777 154.584C149.163 155.197 148.331 155.541 147.463 155.541Z" fill="#E6E6E6"/>
<path d="M125.132 53.7656H60.538C57.3923 53.7682 54.3761 55.0172 52.1512 57.2385C49.9263 59.4598 48.6743 62.4719 48.6699 65.6142V85.0437C48.674 88.1866 49.9257 91.1996 52.1505 93.422C54.3753 95.6443 57.3916 96.8947 60.538 96.8988H125.132C128.278 96.8944 131.293 95.6438 133.517 93.4213C135.741 91.1988 136.991 88.1859 136.993 85.0437V65.6142C136.991 62.4726 135.74 59.4606 133.516 57.2392C131.292 55.0177 128.277 53.7685 125.132 53.7656ZM135.685 85.0437C135.685 87.8412 134.572 90.5241 132.592 92.5022C130.612 94.4804 127.926 95.5917 125.125 95.5917H78.757C71.1244 95.5917 63.8045 92.563 58.4075 87.1719C53.0104 81.7808 49.9784 74.4688 49.9784 66.8446V65.6142C49.9829 62.8186 51.097 60.139 53.0766 58.1628C55.0561 56.1867 57.7394 55.0754 60.538 55.0727H125.132C127.93 55.0757 130.612 56.1872 132.591 58.1635C134.569 60.1398 135.682 62.8193 135.685 65.6142V85.0437Z" fill="#E6E6E6"/>
<path d="M93.5578 82.3451C99.7004 82.3451 104.68 77.371 104.68 71.235C104.68 65.0991 99.7004 60.125 93.5578 60.125C87.4151 60.125 82.4355 65.0991 82.4355 71.235C82.4355 77.371 87.4151 82.3451 93.5578 82.3451Z" fill="#E6E6E6"/>
<path d="M119.145 96.8986L69.3506 96.7221L85.0526 92.8009L87.0088 86.3506L102.063 86.2656L106.571 92.6441L117.955 95.5915L118.988 95.8595L119.145 96.8986Z" fill="#E6E6E6"/>
<path d="M87.2367 78.3288C89.6234 76.4652 86.3608 68.2674 90.3022 70.0172C90.3022 70.0172 95.1194 66.9551 96.0873 68.9674C97.2079 71.2974 101.194 70.2403 103.642 69.4179C103.449 68.9712 103.312 68.5025 103.234 68.0225C103.686 68.3781 104.165 68.6984 104.666 68.9805C105.003 68.801 105.3 68.5572 105.542 68.263C105.781 67.9898 105.93 67.6502 105.97 67.2897C106.01 66.9292 105.939 66.5651 105.766 66.2464C105.358 65.6208 104.517 65.4284 104.023 64.8728C103.965 64.7947 103.928 64.7039 103.914 64.6081C103.899 64.5124 103.909 64.4147 103.94 64.3233C103.999 64.0997 104.008 63.866 103.966 63.6386C103.925 63.4113 103.833 63.1959 103.699 63.0079C103.564 62.8199 103.389 62.6639 103.187 62.551C102.986 62.438 102.761 62.371 102.53 62.3546C102.437 62.3574 102.345 62.3374 102.262 62.2962C101.847 62.0422 101.463 61.7397 101.119 61.3951C101.693 61.4213 100.991 57.9135 95.3034 58.5779C93.8714 58.5254 93.1235 60.103 91.7134 60.3523C88.2953 58.4013 85.2441 61.2157 83.7595 63.906C82.275 66.5963 80.6677 75.2666 87.2367 78.3288Z" fill="#E6E6E6"/>
<path d="M177.216 9.80273H11.8681C8.72239 9.80535 5.70621 11.0543 3.48127 13.2756C1.25633 15.4969 0.00435309 18.5091 0 21.6513V170.48C0.0040906 173.623 1.25578 176.636 3.48059 178.858C5.7054 181.081 8.72171 182.331 11.8681 182.335H177.216C180.362 182.331 183.377 181.08 185.601 178.858C187.825 176.635 189.075 173.622 189.078 170.48V21.6513C189.075 18.5097 187.824 15.4977 185.6 13.2763C183.377 11.0548 180.361 9.8056 177.216 9.80273ZM187.769 170.48C187.769 173.278 186.657 175.961 184.676 177.939C182.696 179.917 180.01 181.028 177.21 181.028H86.4922C75.3057 181.028 64.2288 178.827 53.8938 174.551C43.5588 170.275 34.1683 164.007 26.2582 156.106C18.3482 148.204 12.0736 138.824 7.7927 128.5C3.51182 118.177 1.30849 107.112 1.3085 95.9378V21.6513C1.31295 18.8557 2.42711 16.1761 4.40663 14.1999C6.38616 12.2238 9.06945 11.1125 11.8681 11.1098H177.216C180.014 11.1128 182.697 12.2243 184.675 14.2006C186.654 16.1769 187.766 18.8564 187.769 21.6513V170.48Z" fill="#E6E6E6"/>
<path d="M349.963 339.798L143.64 339.999C143.434 339.998 143.237 339.916 143.092 339.77C142.947 339.624 142.865 339.427 142.865 339.221C142.865 339.015 142.947 338.818 143.092 338.672C143.237 338.526 143.434 338.444 143.64 338.443L349.963 338.242C350.168 338.243 350.366 338.326 350.511 338.471C350.656 338.617 350.738 338.815 350.738 339.02C350.738 339.226 350.656 339.423 350.511 339.569C350.366 339.715 350.168 339.797 349.963 339.798Z" fill="#CACACA"/>
</g>
<defs>
<clipPath id="clip0_158_1196">
<rect width="352" height="340" fill="white"/>
</clipPath>
</defs>
</svg>
