<svg width="766" height="527" viewBox="0 0 766 527" fill="none" xmlns="http://www.w3.org/2000/svg">
<g clip-path="url(#clip0_158_833)">
<path d="M589.912 376.173C611.557 376.173 629.104 359.107 629.104 338.055C629.104 317.003 611.557 299.938 589.912 299.938C568.267 299.938 550.721 317.003 550.721 338.055C550.721 359.107 568.267 376.173 589.912 376.173Z" fill="#DABE78"/>
<path d="M559.321 317.502C565.654 311.343 566.937 302.604 562.187 297.984C557.437 293.365 548.453 294.613 542.12 300.773C535.786 306.932 534.503 315.671 539.253 320.291C544.003 324.91 552.987 323.662 559.321 317.502Z" fill="#DABE78"/>
<path d="M630.759 305.398C633.398 299.39 628.86 291.745 620.624 288.323C612.387 284.901 603.571 286.998 600.932 293.006C598.293 299.014 602.831 306.659 611.068 310.081C619.304 313.503 628.12 311.406 630.759 305.398Z" fill="#DABE78"/>
<path d="M672.911 501.718C666.177 506.268 659.06 510.259 651.637 513.647L650.54 511.761L640.036 493.829L639.117 492.256L633.743 483.085L633.732 483.075L616.768 454.086L608.049 439.204L633.942 421.541L644.014 442.253L649.477 453.504L671.958 499.746L672.911 501.718Z" fill="#F8BDC5"/>
<path d="M649.776 431.779L646.529 426.832L632.169 404.924C630.209 400.667 626.594 397.34 622.116 395.671C617.638 394.002 612.662 394.127 608.279 396.019C603.896 397.911 600.462 401.416 598.731 405.765C596.999 410.115 597.11 414.955 599.04 419.224L607.916 449.98C608.166 450.851 608.605 451.659 609.203 452.35C609.801 453.042 610.544 453.601 611.383 453.99C612.221 454.379 613.136 454.589 614.065 454.605C614.994 454.622 615.916 454.445 616.768 454.086C616.802 454.075 616.824 454.065 616.857 454.054L644.015 442.254L646.939 440.982C647.793 440.608 648.555 440.059 649.172 439.374C649.789 438.689 650.248 437.883 650.517 437.01C650.786 436.137 650.859 435.219 650.731 434.316C650.603 433.414 650.277 432.548 649.776 431.779H649.776Z" fill="#FF9D9D"/>
<path d="M571.75 432.468L564.194 449.064L562.554 452.674L534.577 514.143L533.68 516.115C526.104 513.042 518.809 509.351 511.874 505.08L512.628 503.011L535.463 440.346L541.07 424.957L553.347 427.964L571.75 432.468Z" fill="#F8BDC5"/>
<path d="M620.34 362.672C629.152 346.995 623.228 327.339 607.109 318.769C590.991 310.199 570.781 315.961 561.97 331.638C553.159 347.315 559.082 366.971 575.201 375.54C591.32 384.11 611.529 378.349 620.34 362.672Z" fill="#F8BDC5"/>
<path d="M649.132 439.421C648.651 435.158 647.78 430.945 646.528 426.834C642.757 414.453 635.545 403.326 625.687 394.677C622.065 391.515 617.369 389.768 612.502 389.774H565.644C562.277 389.765 558.963 390.596 556.02 392.188C553.076 393.779 550.602 396.077 548.831 398.864C547.061 401.65 546.055 404.831 545.908 408.103C545.762 411.376 546.48 414.63 547.994 417.555L553.346 427.965L564.193 449.065L566.797 454.12L578.398 476.696L579.317 478.485L638.207 494.24L638.462 493.691C638.684 493.206 638.905 492.732 639.116 492.257C639.437 491.535 639.759 490.835 640.058 490.124C645.997 476.427 648.8 464.239 649.476 453.505C649.779 448.81 649.664 444.097 649.132 439.421Z" fill="#FF9D9D"/>
<path d="M574.143 395.678C569.809 393.703 564.847 393.479 560.342 395.054C555.838 396.629 552.159 399.876 550.111 404.084L545.934 410.216L531.973 430.712C531.455 431.473 531.111 432.333 530.966 433.234C530.82 434.136 530.876 435.057 531.129 435.935C531.383 436.814 531.828 437.629 532.434 438.325C533.041 439.021 533.794 439.582 534.643 439.969L535.463 440.346L562.554 452.675L564.481 453.548C565.209 453.881 565.995 454.074 566.797 454.119C567.868 454.201 568.943 454.02 569.922 453.591C570.776 453.219 571.538 452.672 572.156 451.987C572.774 451.303 573.232 450.497 573.501 449.625L582.874 419.117C584.908 414.882 585.131 410.035 583.494 405.641C581.857 401.246 578.494 397.663 574.143 395.678Z" fill="#FF9D9D"/>
<path d="M640.058 490.123C639.86 489.452 639.541 488.82 639.116 488.258C637.601 486.283 635.789 484.539 633.743 483.086L633.731 483.075C626.607 477.827 612.424 471.695 585.068 471.533H585.024C583.77 471.532 582.542 471.882 581.487 472.542C580.432 473.201 579.594 474.141 579.074 475.251L578.398 476.695L574.043 486.006C573.674 486.807 573.088 487.496 572.348 488C568.414 490.705 555.894 500.511 549.424 519.241C549.191 519.909 548.969 520.588 548.759 521.288C576.425 529.149 605.861 528.89 633.377 520.544L633.986 518.098L640.036 493.83L640.136 493.431C640.41 492.341 640.383 491.199 640.058 490.123Z" fill="white"/>
<path d="M556.205 326.806C563.806 331.901 572.827 334.613 582.058 334.577C578.766 336.797 575.017 338.297 571.071 338.973C583.344 341.534 596.029 341.603 608.331 339.177C611.066 338.75 613.704 337.869 616.131 336.571C617.34 335.914 618.394 335.017 619.224 333.938C620.053 332.859 620.64 331.623 620.946 330.309C621.763 325.767 618.124 321.64 614.342 318.859C608.552 314.666 601.876 311.777 594.797 310.401C587.718 309.025 580.414 309.197 573.411 310.904C568.839 312.053 564.259 313.995 561.289 317.567C558.319 321.138 557.439 326.644 560.269 330.321L556.205 326.806Z" fill="#DABE78"/>
<path d="M446.956 402.888C446.845 402.112 446.757 401.325 446.668 400.549C446.646 400.431 446.635 400.323 446.624 400.204C446.302 397.37 446.07 394.507 445.926 391.615C445.317 394.105 444.766 396.605 444.275 399.116C444.308 399.482 444.342 399.838 444.385 400.204C444.397 400.323 444.408 400.431 444.43 400.549C444.519 401.325 444.607 402.112 444.718 402.888C445.028 405.291 445.405 407.662 445.848 410.022C445.859 409.925 445.87 409.838 445.881 409.741C446.192 407.468 446.546 405.205 446.967 402.942C446.958 402.925 446.955 402.906 446.956 402.888ZM603.295 243.105C602.497 243.03 601.688 242.965 600.89 242.911C600.769 242.901 600.658 242.901 600.536 242.89C596.99 242.631 593.401 242.502 589.788 242.502C569.338 242.508 549.116 246.684 530.427 254.761C511.738 262.837 494.998 274.635 481.287 289.392C467.575 304.15 457.197 321.539 450.822 340.438C444.447 359.338 442.217 379.327 444.275 399.116C444.308 399.482 444.342 399.838 444.385 400.204C444.397 400.323 444.408 400.431 444.43 400.549C444.519 401.325 444.607 402.112 444.718 402.888C445.028 405.291 445.405 407.662 445.848 410.022C450.251 433.419 460.59 455.378 475.927 473.904C491.265 492.431 511.116 506.94 533.679 516.116C535.984 517.042 538.311 517.926 540.671 518.734C542.222 519.284 543.773 519.79 545.346 520.275C546.477 520.631 547.618 520.965 548.759 521.288C550.377 521.752 552.017 522.194 553.668 522.603C573.92 527.656 595.053 528.407 615.63 524.803C636.206 521.199 655.743 513.325 672.91 501.718H672.922C692.389 488.645 708.304 471.171 719.299 450.798C730.293 430.425 736.04 407.76 736.044 384.751C736.044 310.738 677.631 249.754 603.295 243.105ZM671.958 499.746C665.188 504.344 658.022 508.364 650.54 511.762C645.164 514.209 639.635 516.325 633.986 518.099C608.497 526.076 581.227 526.998 555.23 520.76C553.28 520.297 551.345 519.79 549.424 519.241C547.53 518.702 545.653 518.131 543.795 517.527C542.277 517.021 540.759 516.504 539.253 515.954C537.679 515.372 536.128 514.769 534.577 514.144C511.245 504.687 490.874 489.439 475.5 469.925C460.125 450.41 450.287 427.313 446.967 402.942C446.958 402.925 446.955 402.906 446.956 402.888C446.845 402.112 446.757 401.325 446.668 400.549C446.646 400.431 446.635 400.323 446.624 400.204C446.302 397.37 446.07 394.507 445.926 391.615C445.804 389.342 445.745 387.053 445.748 384.751C445.79 347.608 460.979 311.998 487.983 285.735C514.987 259.471 551.599 244.698 589.788 244.657C593.401 244.657 596.99 244.787 600.536 245.045C600.658 245.056 600.769 245.067 600.891 245.078C601.689 245.131 602.497 245.196 603.295 245.271C676.412 251.91 733.828 311.924 733.828 384.751C733.825 407.353 728.196 429.617 717.422 449.643C706.648 469.669 691.048 486.859 671.958 499.746ZM539.253 515.954C537.679 515.372 536.128 514.769 534.577 514.144C511.245 504.687 490.874 489.439 475.5 469.925C460.125 450.41 450.287 427.313 446.967 402.942C446.546 405.205 446.192 407.468 445.881 409.741C445.871 409.838 445.859 409.925 445.848 410.022C450.251 433.419 460.59 455.378 475.927 473.904C491.265 492.431 511.116 506.94 533.68 516.116C535.984 517.042 538.311 517.926 540.671 518.734C540.184 517.818 539.707 516.892 539.253 515.954ZM600.536 242.89C596.99 242.631 593.401 242.502 589.788 242.502C569.338 242.508 549.116 246.684 530.427 254.761C511.738 262.837 494.998 274.635 481.287 289.392C467.575 304.15 457.197 321.539 450.822 340.438C444.447 359.338 442.217 379.327 444.275 399.116C444.308 399.482 444.342 399.838 444.385 400.204C444.397 400.323 444.408 400.431 444.43 400.549H446.668C446.646 400.431 446.635 400.323 446.624 400.204C446.302 397.37 446.07 394.507 445.926 391.615C445.804 389.342 445.745 387.053 445.748 384.751C445.79 347.608 460.979 311.998 487.983 285.735C514.986 259.471 551.599 244.698 589.788 244.657C593.401 244.657 596.99 244.787 600.536 245.045C600.658 245.056 600.769 245.067 600.89 245.078V242.911C600.769 242.901 600.658 242.901 600.536 242.89H600.536Z" fill="#FF9D9D"/>
<path d="M708.671 278.912C753.594 279.658 753.587 344.649 708.67 345.389C663.748 344.643 663.755 279.652 708.671 278.912Z" fill="#FF9D9D"/>
<path d="M708.671 330.248C708.034 330.247 707.423 330.001 706.973 329.563C706.523 329.125 706.27 328.531 706.269 327.912V315.527C706.269 315.251 706.156 314.986 705.955 314.791C705.755 314.596 705.482 314.486 705.199 314.486H692.465C691.827 314.486 691.216 314.24 690.766 313.801C690.316 313.363 690.062 312.769 690.062 312.149C690.062 311.53 690.316 310.936 690.766 310.497C691.216 310.059 691.827 309.813 692.465 309.813H705.199C705.482 309.813 705.754 309.703 705.955 309.508C706.156 309.313 706.269 309.048 706.269 308.773V296.387C706.269 295.767 706.522 295.173 706.972 294.735C707.423 294.297 708.034 294.051 708.671 294.051C709.307 294.051 709.918 294.297 710.369 294.735C710.819 295.173 711.072 295.767 711.072 296.387V308.772C711.072 309.048 711.185 309.313 711.386 309.508C711.587 309.703 711.859 309.813 712.142 309.813H724.877C725.514 309.813 726.125 310.059 726.575 310.497C727.026 310.936 727.279 311.53 727.279 312.149C727.279 312.769 727.026 313.363 726.575 313.801C726.125 314.239 725.514 314.486 724.877 314.486H712.142C711.859 314.486 711.587 314.596 711.386 314.791C711.185 314.986 711.072 315.251 711.072 315.527V327.912C711.071 328.531 710.818 329.125 710.368 329.563C709.918 330.001 709.307 330.247 708.671 330.248Z" fill="white"/>
</g>
<defs>
<clipPath id="clip0_158_833">
<rect width="766" height="527" fill="white"/>
</clipPath>
</defs>
</svg>
