<svg width="580" height="362" viewBox="0 0 580 362" fill="none" xmlns="http://www.w3.org/2000/svg">
<path d="M44.4648 99.6088C44.4648 99.6088 52.4507 99.3629 54.8574 97.6496C57.2641 95.9364 67.1416 93.8906 67.7387 96.6383C68.3358 99.386 79.7399 110.304 70.724 110.377C61.708 110.45 49.7748 108.973 47.3727 107.51C44.9706 106.048 44.4648 99.6088 44.4648 99.6088Z" fill="#A8A8A8"/>
<path opacity="0.2" d="M70.8849 109.422C61.8689 109.494 49.9358 108.018 47.5336 106.555C45.7043 105.441 44.9754 101.444 44.7314 99.5996C44.5625 99.6069 44.4648 99.61 44.4648 99.61C44.4648 99.61 44.9706 106.049 47.3728 107.511C49.7749 108.974 61.708 110.451 70.724 110.378C73.3265 110.357 74.2255 109.432 74.1761 108.061C73.8145 108.889 72.822 109.406 70.8849 109.422Z" fill="black"/>
<path d="M102.887 233.016C156.388 233.016 199.76 227.117 199.76 219.841C199.76 212.565 156.388 206.666 102.887 206.666C49.3852 206.666 6.01367 212.565 6.01367 219.841C6.01367 227.117 49.3852 233.016 102.887 233.016Z" fill="#3F3D56"/>
<path opacity="0.1" d="M102.887 230.902C147.805 230.902 184.219 225.95 184.219 219.841C184.219 213.732 147.805 208.779 102.887 208.779C57.9682 208.779 21.5547 213.732 21.5547 219.841C21.5547 225.95 57.9682 230.902 102.887 230.902Z" fill="black"/>
<path d="M160.389 134.131C160.389 134.131 227.734 115.487 231.878 175.562C236.022 235.636 176.448 252.726 223.071 264.637" stroke="#2F2E41" stroke-width="2" stroke-miterlimit="10"/>
<path d="M95.3242 278.25C95.3242 278.25 115.565 272.646 116.811 290.702C118.056 308.758 100.151 313.894 114.164 317.474" stroke="#2F2E41" stroke-width="2" stroke-miterlimit="10"/>
<path d="M403.399 291.692L399.318 317.739C399.318 317.739 379.228 328.409 393.354 328.723C407.48 329.037 474.03 328.723 474.03 328.723C474.03 328.723 486.9 328.723 466.496 317.425L462.415 290.123L403.399 291.692Z" fill="#2F2E41"/>
<path opacity="0.1" d="M390.512 328.44C393.72 325.586 399.318 322.613 399.318 322.613L403.399 296.566L462.415 296.621L466.495 322.299C471.254 324.934 474.201 326.953 475.926 328.502C478.546 327.905 481.41 325.683 466.495 317.425L462.415 290.123L403.399 291.692L399.318 317.739C399.318 317.739 382.436 326.706 390.512 328.44Z" fill="black"/>
<path d="M556.187 110.148H308.999C303.836 110.148 299.65 114.333 299.65 119.494V285.956C299.65 291.118 303.836 295.302 308.999 295.302H556.187C561.35 295.302 565.535 291.118 565.535 285.956V119.494C565.535 114.333 561.35 110.148 556.187 110.148Z" fill="#2F2E41"/>
<path d="M556.589 120.033H308.598V258.741H556.589V120.033Z" fill="#3F3D56"/>
<path d="M432.593 117.209C433.46 117.209 434.163 116.506 434.163 115.639C434.163 114.773 433.46 114.07 432.593 114.07C431.726 114.07 431.023 114.773 431.023 115.639C431.023 116.506 431.726 117.209 432.593 117.209Z" fill="#F2F2F2"/>
<path d="M565.535 269.725V285.955C565.535 287.183 565.293 288.398 564.824 289.532C564.354 290.666 563.665 291.696 562.797 292.564C561.929 293.432 560.899 294.12 559.764 294.59C558.63 295.059 557.414 295.301 556.187 295.301H308.999C307.771 295.301 306.555 295.059 305.421 294.59C304.287 294.12 303.256 293.432 302.388 292.564C301.52 291.696 300.831 290.666 300.362 289.532C299.892 288.398 299.65 287.183 299.65 285.955V269.725H565.535Z" fill="#2F2E41"/>
<path d="M501.968 345.669V348.807H333.082V346.296L333.315 345.669L337.477 334.371H498.514L501.968 345.669Z" fill="#2F2E41"/>
<path d="M566.96 342.597C566.653 343.912 565.491 345.299 562.867 346.61C553.45 351.318 534.301 345.355 534.301 345.355C534.301 345.355 519.547 342.845 519.547 336.254C519.961 335.971 520.393 335.714 520.84 335.486C524.8 333.391 537.927 328.224 561.204 335.704C562.919 336.242 564.451 337.246 565.629 338.603C566.572 339.707 567.312 341.107 566.96 342.597Z" fill="#2F2E41"/>
<path opacity="0.1" d="M566.96 342.597C555.433 347.012 545.159 347.342 534.614 340.02C529.297 336.33 524.466 335.416 520.84 335.486C524.799 333.391 537.927 328.224 561.204 335.704C562.919 336.242 564.451 337.246 565.629 338.603C566.572 339.707 567.312 341.107 566.96 342.597Z" fill="black"/>
<path d="M552.507 340.02C554.76 340.02 556.588 339.458 556.588 338.765C556.588 338.072 554.76 337.51 552.507 337.51C550.253 337.51 548.426 338.072 548.426 338.765C548.426 339.458 550.253 340.02 552.507 340.02Z" fill="#FF9D9D"/>
<path d="M432.593 288.554C435.887 288.554 438.558 285.885 438.558 282.591C438.558 279.298 435.887 276.629 432.593 276.629C429.299 276.629 426.629 279.298 426.629 282.591C426.629 285.885 429.299 288.554 432.593 288.554Z" fill="#FF9D9D"/>
<path opacity="0.1" d="M501.968 345.67V348.808H333.082V346.298L333.315 345.67H501.968Z" fill="black"/>
<path d="M164.016 82.3438H56.2637V207.671H164.016V82.3438Z" fill="#2F2E41"/>
<path d="M174.894 69.9141H45.3848V114.452H174.894V69.9141Z" fill="#3F3D56"/>
<path d="M174.894 122.738H45.3848V167.276H174.894V122.738Z" fill="#3F3D56"/>
<path d="M174.894 175.562H45.3848V220.1H174.894V175.562Z" fill="#3F3D56"/>
<path opacity="0.4" d="M148.992 77.6816H140.703V85.9678H148.992V77.6816Z" fill="#FF9D9D"/>
<path opacity="0.8" d="M160.908 77.6816H152.619V85.9678H160.908V77.6816Z" fill="#FF9D9D"/>
<path d="M172.822 77.6816H164.533V85.9678H172.822V77.6816Z" fill="#FF9D9D"/>
<path opacity="0.4" d="M148.992 129.988H140.703V138.274H148.992V129.988Z" fill="#FF9D9D"/>
<path opacity="0.8" d="M160.908 129.988H152.619V138.274H160.908V129.988Z" fill="#FF9D9D"/>
<path d="M172.822 129.988H164.533V138.274H172.822V129.988Z" fill="#FF9D9D"/>
<path opacity="0.4" d="M148.992 182.295H140.703V190.581H148.992V182.295Z" fill="#FF9D9D"/>
<path opacity="0.8" d="M160.908 182.295H152.619V190.581H160.908V182.295Z" fill="#FF9D9D"/>
<path d="M172.822 182.295H164.533V190.581H172.822V182.295Z" fill="#FF9D9D"/>
<path d="M164.015 319.534C186.617 319.534 204.94 301.217 204.94 278.622C204.94 256.026 186.617 237.709 164.015 237.709C141.413 237.709 123.09 256.026 123.09 278.622C123.09 301.217 141.413 319.534 164.015 319.534Z" fill="#2F2E41"/>
<path d="M157.798 310.73H145.365V332.999H157.798V310.73Z" fill="#2F2E41"/>
<path d="M182.665 310.73H170.232V332.999H182.665V310.73Z" fill="#2F2E41"/>
<path d="M155.726 337.141C161.448 337.141 166.087 335.402 166.087 333.257C166.087 331.112 161.448 329.373 155.726 329.373C150.004 329.373 145.365 331.112 145.365 333.257C145.365 335.402 150.004 337.141 155.726 337.141Z" fill="#2F2E41"/>
<path d="M180.593 336.624C186.315 336.624 190.954 334.885 190.954 332.74C190.954 330.594 186.315 328.855 180.593 328.855C174.871 328.855 170.232 330.594 170.232 332.74C170.232 334.885 174.871 336.624 180.593 336.624Z" fill="#2F2E41"/>
<path d="M165.051 282.247C172.776 282.247 179.039 275.987 179.039 268.264C179.039 260.542 172.776 254.281 165.051 254.281C157.327 254.281 151.064 260.542 151.064 268.264C151.064 275.987 157.327 282.247 165.051 282.247Z" fill="white"/>
<path d="M165.051 272.923C167.626 272.923 169.713 270.837 169.713 268.263C169.713 265.688 167.626 263.602 165.051 263.602C162.476 263.602 160.389 265.688 160.389 268.263C160.389 270.837 162.476 272.923 165.051 272.923Z" fill="#3F3D56"/>
<path d="M202.398 270.462C212.788 266.016 220.079 259.769 218.683 256.509C217.287 253.248 207.733 254.209 197.343 258.654C186.954 263.099 179.663 269.346 181.059 272.607C182.455 275.868 192.009 274.907 202.398 270.462Z" fill="#2F2E41"/>
<path d="M125.73 297.909C136.12 293.464 143.411 287.217 142.015 283.956C140.619 280.695 131.065 281.656 120.675 286.101C110.286 290.547 102.995 296.794 104.391 300.054C105.787 303.315 115.341 302.354 125.73 297.909Z" fill="#2F2E41"/>
<path d="M187.846 290.531C187.846 294.535 177.532 302.443 166.088 302.443C154.644 302.443 143.812 295.053 143.812 291.049C143.812 287.045 154.644 287.942 166.088 287.942C177.532 287.942 187.846 286.527 187.846 290.531Z" fill="white"/>
</svg>
