<svg width="535" height="355" viewBox="0 0 535 355" fill="none" xmlns="http://www.w3.org/2000/svg">
<path d="M269.865 84.0032H267.922V30.7953C267.922 26.7512 267.125 22.7467 265.577 19.0105C264.029 15.2742 261.76 11.8794 258.899 9.01974C256.038 6.16014 252.642 3.89177 248.904 2.34416C245.166 0.796552 241.16 3.42165e-06 237.114 0H124.34C116.169 -1.5548e-05 108.333 3.24446 102.555 9.01968C96.7776 14.7949 93.5318 22.6278 93.5317 30.7952V322.698C93.5317 326.742 94.3286 330.746 95.8768 334.483C97.4251 338.219 99.6944 341.614 102.555 344.473C105.416 347.333 108.812 349.601 112.55 351.149C116.288 352.697 120.294 353.493 124.34 353.493H237.114C245.285 353.493 253.121 350.249 258.899 344.473C264.676 338.698 267.922 330.865 267.922 322.698V121.877H269.865V84.0032Z" fill="#FF9D9D"/>
<path d="M238.357 8.01174H223.636C224.313 9.67077 224.572 11.4708 224.389 13.2531C224.206 15.0355 223.587 16.7456 222.588 18.2327C221.588 19.7198 220.237 20.9383 218.656 21.7809C217.074 22.6234 215.309 23.0642 213.516 23.0643H148.909C147.117 23.0642 145.352 22.6234 143.77 21.7809C142.188 20.9383 140.838 19.7198 139.838 18.2327C138.838 16.7456 138.219 15.0355 138.036 13.2531C137.854 11.4707 138.112 9.67075 138.789 8.01172H125.04C122.018 8.01172 119.027 8.60657 116.235 9.7623C113.444 10.918 110.908 12.612 108.771 14.7475C106.635 16.8831 104.94 19.4183 103.784 22.2085C102.628 24.9987 102.033 27.9892 102.033 31.0093V322.484C102.033 325.504 102.628 328.494 103.784 331.284C104.94 334.075 106.635 336.61 108.771 338.745C110.908 340.881 113.444 342.575 116.235 343.731C119.027 344.886 122.018 345.481 125.04 345.481H238.357C241.379 345.481 244.37 344.886 247.162 343.731C249.953 342.575 252.489 340.881 254.626 338.745C256.762 336.61 258.457 334.075 259.613 331.284C260.769 328.494 261.364 325.504 261.364 322.484V31.0093C261.364 27.9892 260.769 24.9987 259.613 22.2085C258.457 19.4183 256.762 16.8831 254.626 14.7476C252.489 12.612 249.953 10.918 247.162 9.76231C244.37 8.60658 241.379 8.01173 238.357 8.01174Z" fill="white"/>
<path d="M226.907 253.674C207.243 253.322 207.246 224.11 226.908 223.76C246.572 224.113 246.569 253.325 226.907 253.674Z" fill="white"/>
<path d="M226.907 253.674C207.243 253.322 207.246 224.11 226.908 223.76C246.572 224.113 246.569 253.325 226.907 253.674ZM226.907 224.667C208.435 224.998 208.437 252.439 226.908 252.768C245.38 252.437 245.377 224.995 226.907 224.667Z" fill="#E6E6E6"/>
<path d="M230.103 231.05C226.414 231.156 219.241 229.838 219.237 235.523C219.343 239.21 218.024 246.381 223.712 246.384C227.401 246.279 234.574 247.597 234.578 241.912C234.472 238.224 235.791 231.054 230.103 231.05Z" fill="#CACACA"/>
<path d="M231.062 235.523C230.813 235.515 230.576 235.411 230.403 235.232C230.23 235.053 230.133 234.813 230.133 234.564C230.134 234.315 230.232 234.076 230.406 233.898C230.58 233.719 230.817 233.616 231.066 233.61C231.316 233.617 231.552 233.721 231.726 233.9C231.899 234.079 231.996 234.319 231.995 234.568C231.995 234.817 231.897 235.057 231.723 235.235C231.548 235.413 231.311 235.516 231.062 235.523Z" fill="white"/>
<path d="M226.907 236.162C230.225 236.113 230.225 241.322 226.907 241.273C223.59 241.322 223.59 236.113 226.907 236.162ZM226.907 234.884C221.932 234.811 221.931 242.624 226.908 242.551C231.884 242.624 231.883 234.811 226.907 234.884Z" fill="white"/>
<path d="M136.369 253.674C116.705 253.322 116.708 224.11 136.37 223.76C156.034 224.113 156.031 253.325 136.369 253.674Z" fill="white"/>
<path d="M136.369 253.674C116.705 253.322 116.708 224.11 136.37 223.76C156.034 224.113 156.031 253.325 136.369 253.674ZM136.369 224.667C117.896 224.998 117.899 252.439 136.37 252.768C154.842 252.437 154.839 224.995 136.369 224.667Z" fill="#E6E6E6"/>
<path d="M144.494 234.944C144.028 235.486 143.521 235.992 142.979 236.457C142.308 243.758 137.747 245.416 134.086 245.416C131.454 245.416 129.284 244.559 129.356 244.324C133.262 244.415 133.595 242.813 133.595 242.813C131.326 242.477 130.871 240.996 130.871 240.996C131.074 241.104 131.31 241.132 131.533 241.076C131.757 241.021 131.951 240.885 132.08 240.694C131.415 240.542 130.829 240.148 130.438 239.588C130.047 239.029 129.878 238.344 129.964 237.666C130.4 237.982 130.91 238.18 131.445 238.243C131.173 237.91 128.882 235.165 130.261 233.743C130.986 234.772 131.955 235.605 133.081 236.168C134.206 236.731 135.454 237.007 136.713 236.97C136.618 236.507 136.628 236.028 136.74 235.569C136.853 235.109 137.066 234.68 137.364 234.313C137.662 233.945 138.038 233.649 138.464 233.444C138.891 233.239 139.357 233.131 139.831 233.127C141.95 233.127 142.405 234.339 142.405 234.339L143.919 233.43C143.889 233.43 143.736 234.944 142.979 235.246L144.494 234.944Z" fill="#CACACA"/>
<path d="M181.638 253.674C161.974 253.322 161.977 224.11 181.639 223.76C201.303 224.113 201.3 253.325 181.638 253.674Z" fill="white"/>
<path d="M181.638 253.674C161.974 253.322 161.977 224.11 181.639 223.76C201.303 224.113 201.3 253.325 181.638 253.674ZM181.638 224.667C163.166 224.998 163.168 252.439 181.639 252.768C200.111 252.437 200.108 224.995 181.638 224.667Z" fill="#E6E6E6"/>
<path d="M189.883 238.766C189.883 240.745 189.177 242.659 187.892 244.164C186.606 245.669 184.826 246.666 182.871 246.976V241.17H184.807L185.176 238.766H182.871C182.793 236.764 182.715 235.641 185.273 235.91V233.866C181.442 233.023 179.844 234.964 180.274 238.766H178.163V241.17H180.274V246.973C170.338 245.445 171.506 230.42 181.57 230.459C183.774 230.458 185.888 231.333 187.447 232.891C189.007 234.449 189.883 236.562 189.883 238.765V238.766Z" fill="#CACACA"/>
<path d="M238.993 166.128H124.404C123.697 166.127 123.02 165.846 122.52 165.347C122.02 164.847 121.739 164.17 121.739 163.464V92.6071C121.739 91.9009 122.02 91.2238 122.52 90.7245C123.02 90.2251 123.697 89.9442 124.404 89.9434H238.993C239.7 89.9442 240.377 90.2251 240.877 90.7245C241.376 91.2238 241.658 91.9009 241.658 92.6071V163.464C241.658 164.17 241.376 164.847 240.877 165.347C240.377 165.846 239.7 166.127 238.993 166.128Z" fill="white"/>
<path d="M238.993 166.128H124.404C123.697 166.127 123.02 165.846 122.52 165.347C122.02 164.847 121.739 164.17 121.739 163.464V92.6071C121.739 91.9009 122.02 91.2238 122.52 90.7245C123.02 90.2251 123.697 89.9442 124.404 89.9434H238.993C239.7 89.9442 240.377 90.2251 240.877 90.7245C241.376 91.2238 241.658 91.9009 241.658 92.6071V163.464C241.658 164.17 241.376 164.847 240.877 165.347C240.377 165.846 239.7 166.127 238.993 166.128ZM124.404 91.0089C123.98 91.0094 123.573 91.1779 123.273 91.4775C122.974 91.7772 122.805 92.1834 122.805 92.6072V163.464C122.805 163.888 122.974 164.294 123.273 164.593C123.573 164.893 123.98 165.062 124.404 165.062H238.993C239.417 165.062 239.824 164.893 240.124 164.593C240.423 164.294 240.592 163.888 240.592 163.464V92.6072C240.592 92.1834 240.423 91.7772 240.124 91.4775C239.824 91.1779 239.417 91.0094 238.993 91.0089H124.404Z" fill="#CACACA"/>
<path d="M216.342 122.175H147.055C146.42 122.173 145.812 121.92 145.364 121.47C144.916 121.021 144.665 120.412 144.665 119.778C144.665 119.143 144.916 118.535 145.364 118.085C145.812 117.636 146.42 117.382 147.055 117.38H216.342C216.658 117.379 216.97 117.441 217.262 117.561C217.554 117.681 217.819 117.857 218.043 118.08C218.267 118.302 218.444 118.567 218.565 118.859C218.686 119.15 218.748 119.462 218.748 119.778C218.748 120.093 218.686 120.406 218.565 120.697C218.444 120.988 218.267 121.253 218.043 121.476C217.819 121.699 217.554 121.875 217.262 121.995C216.97 122.115 216.658 122.176 216.342 122.175Z" fill="#FF9D9D"/>
<path d="M216.342 138.69H147.055C146.42 138.688 145.812 138.435 145.364 137.985C144.916 137.536 144.665 136.927 144.665 136.293C144.665 135.658 144.916 135.05 145.364 134.6C145.812 134.151 146.42 133.898 147.055 133.896H216.342C216.658 133.894 216.97 133.956 217.262 134.076C217.554 134.196 217.819 134.372 218.043 134.595C218.267 134.818 218.444 135.082 218.565 135.374C218.686 135.665 218.748 135.977 218.748 136.293C218.748 136.608 218.686 136.921 218.565 137.212C218.444 137.504 218.267 137.768 218.043 137.991C217.819 138.214 217.554 138.39 217.262 138.51C216.97 138.63 216.658 138.691 216.342 138.69Z" fill="#FF9D9D"/>
<path d="M360.193 226.671C360.083 227.079 360.005 227.494 359.961 227.914L326.448 245.507L318.666 240.609L309.736 251.381L322.668 261.391C323.713 262.2 324.992 262.648 326.313 262.668C327.634 262.689 328.926 262.28 329.995 261.504L364.837 236.202C366.34 236.827 367.997 236.98 369.588 236.64C371.179 236.301 372.629 235.485 373.745 234.301C374.861 233.118 375.59 231.623 375.835 230.015C376.081 228.407 375.83 226.763 375.118 225.301C374.405 223.838 373.264 222.628 371.847 221.83C370.429 221.031 368.802 220.684 367.182 220.832C365.561 220.981 364.025 221.62 362.776 222.663C361.528 223.705 360.627 225.104 360.193 226.671Z" fill="#FFB6B6"/>
<path d="M400.598 345.881L407.317 341.561L393.847 313.599L383.93 319.974L400.598 345.881Z" fill="#FFB6B6"/>
<path d="M303.787 297.849L355.367 264.839C355.367 264.839 364.844 263.924 370.532 275.129L404.884 324.454L390.228 334.367L352.109 294.802L325.951 320.661C325.951 320.661 364.49 314.343 363.186 339.747C362.152 359.908 309.406 352.992 287.677 349.279C283.55 348.605 279.622 347.032 276.171 344.671C272.72 342.31 269.832 339.218 267.711 335.616C265.38 331.575 264.128 326.988 266.085 322.651C271.305 311.087 303.787 297.849 303.787 297.849Z" fill="white"/>
<path d="M278.217 325.438L263.352 322.431L267.588 249.505L284.692 228.564L294.882 226.761C297.919 226.21 301.053 226.82 303.662 228.471C306.271 230.121 308.164 232.691 308.967 235.67L313.458 252.072C321.079 264.97 310.403 279.925 309.419 281.254L309.974 303.873L278.217 325.438Z" fill="#FF9D9D"/>
<path d="M292.057 231.421L293 228.086C293 228.086 303.235 220.545 318.875 240.087L311.381 253.44L295.09 252.788L292.057 231.421Z" fill="#FF9D9D"/>
<path d="M315.602 205.468C318.501 217.35 307.072 218.233 293.514 221.538C279.956 224.844 269.404 229.321 266.505 217.44C263.605 205.559 263.834 183.189 283.014 178.512C302.855 173.674 312.702 193.587 315.602 205.468Z" fill="#DABE78"/>
<path d="M289.398 222.023C298.788 222.023 306.401 214.414 306.401 205.027C306.401 195.64 298.788 188.031 289.398 188.031C280.007 188.031 272.395 195.64 272.395 205.027C272.395 214.414 280.007 222.023 289.398 222.023Z" fill="#FFB6B6"/>
<path d="M269.917 208.061L276.45 206.467L277.364 197.697L279.909 205.624L283.031 204.863L283.564 199.747L285.049 204.371L308.252 198.713C307.692 196.417 306.685 194.255 305.289 192.348C303.893 190.442 302.134 188.829 300.115 187.602C298.095 186.375 295.853 185.557 293.517 185.196C291.181 184.835 288.797 184.937 286.5 185.497L283.137 186.317C280.841 186.877 278.678 187.884 276.77 189.28C274.863 190.675 273.25 192.433 272.022 194.452C270.794 196.471 269.976 198.712 269.615 201.047C269.254 203.382 269.356 205.765 269.917 208.061Z" fill="#DABE78"/>
<path d="M482.113 228.774H367.523C366.817 228.773 366.139 228.492 365.64 227.993C365.14 227.494 364.859 226.817 364.858 226.11V155.254C364.859 154.547 365.14 153.87 365.64 153.371C366.139 152.872 366.817 152.591 367.523 152.59H482.113C482.82 152.591 483.497 152.872 483.997 153.371C484.496 153.87 484.777 154.547 484.778 155.254V226.11C484.777 226.817 484.496 227.494 483.997 227.993C483.497 228.492 482.82 228.773 482.113 228.774Z" fill="white"/>
<path d="M482.113 228.774H367.523C366.817 228.773 366.139 228.492 365.64 227.993C365.14 227.494 364.859 226.817 364.858 226.11V155.254C364.859 154.547 365.14 153.87 365.64 153.371C366.139 152.872 366.817 152.591 367.523 152.59H482.113C482.82 152.591 483.497 152.872 483.997 153.371C484.496 153.87 484.777 154.547 484.778 155.254V226.11C484.777 226.817 484.496 227.494 483.997 227.993C483.497 228.492 482.82 228.773 482.113 228.774ZM367.523 153.655C367.099 153.656 366.693 153.824 366.393 154.124C366.093 154.424 365.925 154.83 365.924 155.254V226.11C365.925 226.534 366.093 226.94 366.393 227.24C366.693 227.54 367.099 227.708 367.523 227.709H482.113C482.537 227.708 482.944 227.54 483.243 227.24C483.543 226.94 483.712 226.534 483.712 226.11V155.254C483.712 154.83 483.543 154.424 483.243 154.124C482.944 153.824 482.537 153.656 482.113 153.655H367.523Z" fill="#CACACA"/>
<path d="M459.462 184.822H390.175C389.859 184.822 389.547 184.761 389.256 184.64C388.964 184.52 388.699 184.344 388.476 184.121C388.253 183.898 388.076 183.634 387.955 183.343C387.835 183.051 387.772 182.739 387.772 182.424C387.772 182.109 387.835 181.797 387.955 181.506C388.076 181.215 388.253 180.95 388.476 180.728C388.699 180.505 388.964 180.328 389.256 180.208C389.547 180.088 389.859 180.026 390.175 180.027H459.462C460.098 180.027 460.708 180.279 461.158 180.729C461.607 181.179 461.86 181.788 461.86 182.424C461.86 183.06 461.607 183.67 461.158 184.119C460.708 184.569 460.098 184.822 459.462 184.822Z" fill="#FF9D9D"/>
<path d="M459.462 201.337H390.175C389.859 201.339 389.546 201.277 389.254 201.158C388.962 201.038 388.696 200.861 388.473 200.639C388.249 200.416 388.071 200.151 387.95 199.86C387.829 199.568 387.767 199.256 387.767 198.94C387.767 198.624 387.829 198.312 387.95 198.02C388.071 197.729 388.249 197.464 388.473 197.241C388.696 197.019 388.962 196.842 389.254 196.722C389.546 196.602 389.859 196.541 390.175 196.543H459.462C460.096 196.545 460.704 196.799 461.151 197.248C461.599 197.697 461.85 198.306 461.85 198.94C461.85 199.574 461.599 200.182 461.151 200.632C460.704 201.081 460.096 201.335 459.462 201.337Z" fill="#FF9D9D"/>
<path d="M318.517 289.073C318.109 289.18 317.709 289.318 317.322 289.488L285.423 269.116L285.821 259.933L272.034 257.521L269.749 273.71C269.564 275.018 269.809 276.35 270.446 277.507C271.084 278.664 272.079 279.583 273.284 280.126L312.539 297.83C312.741 299.444 313.43 300.958 314.513 302.171C315.597 303.384 317.025 304.238 318.606 304.62C320.188 305.002 321.848 304.894 323.367 304.31C324.885 303.726 326.19 302.693 327.107 301.35C328.024 300.007 328.51 298.416 328.501 296.79C328.492 295.163 327.987 293.578 327.055 292.246C326.122 290.913 324.806 289.895 323.281 289.329C321.756 288.762 320.094 288.673 318.517 289.073H318.517Z" fill="#FFB6B6"/>
<path d="M287.271 231.894L284.867 228.864C284.867 228.864 275.215 225.756 270.001 238.784C264.788 251.812 269.676 264.513 269.676 264.513L292.483 266.467L294.112 245.298L287.271 231.894Z" fill="#FF9D9D"/>
</svg>
