<svg width="155" height="155" viewBox="0 0 155 155" fill="none" xmlns="http://www.w3.org/2000/svg">
<g filter="url(#filter0_d_74_31)">
<circle cx="71.5" cy="71.5" r="71.5" fill="white"/>
</g>
<path d="M94.7337 72.7723L73.7337 49.4389C72.8494 48.4543 71.1507 48.4543 70.2664 49.4389L49.2664 72.7723C48.9641 73.1073 48.7657 73.523 48.6953 73.9687C48.6249 74.4144 48.6855 74.871 48.8697 75.2829C49.243 76.1253 50.0784 76.6666 51 76.6666H55.6667V92.9999C55.6667 93.6188 55.9125 94.2123 56.3501 94.6499C56.7877 95.0874 57.3812 95.3333 58 95.3333H65C65.6189 95.3333 66.2124 95.0874 66.65 94.6499C67.0875 94.2123 67.3334 93.6188 67.3334 92.9999V83.6666H76.6667V92.9999C76.6667 93.6188 76.9125 94.2123 77.3501 94.6499C77.7877 95.0874 78.3812 95.3333 79 95.3333H86C86.6189 95.3333 87.2124 95.0874 87.65 94.6499C88.0875 94.2123 88.3334 93.6188 88.3334 92.9999V76.6666H93C93.4519 76.6685 93.8946 76.5389 94.2741 76.2936C94.6536 76.0483 94.9536 75.6979 95.1373 75.285C95.3211 74.8722 95.3808 74.4148 95.3092 73.9686C95.2375 73.5225 95.0375 73.1068 94.7337 72.7723Z" fill="#FFCCCC"/>
<defs>
<filter id="filter0_d_74_31" x="0" y="0" width="155" height="155" filterUnits="userSpaceOnUse" color-interpolation-filters="sRGB">
<feFlood flood-opacity="0" result="BackgroundImageFix"/>
<feColorMatrix in="SourceAlpha" type="matrix" values="0 0 0 0 0 0 0 0 0 0 0 0 0 0 0 0 0 0 127 0" result="hardAlpha"/>
<feOffset dx="8" dy="8"/>
<feGaussianBlur stdDeviation="2"/>
<feComposite in2="hardAlpha" operator="out"/>
<feColorMatrix type="matrix" values="0 0 0 0 0 0 0 0 0 0 0 0 0 0 0 0 0 0 0.25 0"/>
<feBlend mode="normal" in2="BackgroundImageFix" result="effect1_dropShadow_74_31"/>
<feBlend mode="normal" in="SourceGraphic" in2="effect1_dropShadow_74_31" result="shape"/>
</filter>
</defs>
</svg>
