<svg width="478" height="320" viewBox="0 0 478 320" fill="none" xmlns="http://www.w3.org/2000/svg">
<g clip-path="url(#clip0_74_71)">
<path d="M466.915 318.503C466.915 318.874 466.614 319.175 466.242 319.175H0V317.831H466.242C466.614 317.831 466.915 318.131 466.915 318.503V318.503Z" fill="#E6E6E6"/>
<path d="M332.317 106.076C332.317 106.076 307.22 109.091 311.453 89.2687C315.687 69.4461 339.689 32.8326 339.689 32.8326L353.31 40.4634L337.673 77.3895L344.404 82.695L332.317 106.076H332.317Z" fill="#D7A3AA"/>
<path d="M414.561 81.9435L411.025 110.999L322.407 110.566L340.205 79.666L414.561 81.9435Z" fill="#FF9D9D"/>
<path d="M361.898 34.3765C367.321 26.8104 367.757 17.8434 362.87 14.3482C357.984 10.853 349.626 14.1532 344.203 21.7193C338.78 29.2854 338.345 38.2524 343.231 41.7475C348.118 45.2427 356.475 41.9426 361.898 34.3765Z" fill="#D7A3AA"/>
<path d="M406.04 192.72V318.819H411.481V192.72H406.04Z" fill="white"/>
<path d="M379.924 192.72V318.819H385.365V192.72H379.924Z" fill="white"/>
<path d="M233.562 113.365V318.819H239.003V113.365H233.562Z" fill="white" fill-opacity="0.42"/>
<path d="M321.161 192.72V318.819H326.602V192.72H321.161Z" fill="white"/>
<path d="M300.34 192.72V318.819H305.781V192.72H300.34Z" fill="white"/>
<path d="M401.143 190.003H296.073L275.918 218.562L380.468 224.789L401.143 190.003Z" fill="white" fill-opacity="0.42"/>
<path d="M208.749 92.2891L209.226 71.5774L145.813 76.45L145.488 90.4846L208.749 92.2891Z" fill="#D7A3AA"/>
<path d="M165.831 73.9754L162.798 81.2647L158.442 81.4036C158.442 81.4036 163.542 82.9637 164.959 92.2215L160.774 93.4748C160.774 93.4748 156.755 97.2208 149.241 96.8574L129.096 95.174L129.019 88.1585L142.942 86.5512C142.942 86.5512 146.044 84.5123 130.686 76.1297C130.686 76.1297 125.599 73.0219 130.174 57.6751C130.803 55.5658 132.703 54.0508 134.906 54.0032C136.121 53.9769 137.26 54.4131 137.715 55.9214C138.872 59.7608 137.701 63.5882 140.882 65.9848C144.063 68.3814 165.831 73.9754 165.831 73.9754Z" fill="#FF9D9D"/>
<path d="M393.28 171.472C393.28 171.472 371.4 208.647 321.89 201.947C310.108 200.353 299.742 193.355 293.837 183.047C282.422 163.122 265.09 128.235 270.709 108.48L186.973 92.515L180.375 72.2L270.999 60.4401C279.015 59.3999 286.867 63.294 290.884 70.3014L335.029 147.316L348.189 148.751L393.28 171.472V171.472Z" fill="white"/>
<path d="M210.402 100.768L209.21 80.0848L146.394 90.0381L147.201 104.053L210.402 100.768Z" fill="#D7A3AA"/>
<path d="M166.148 85.9627L163.712 93.4721L159.382 93.9606C159.382 93.9606 164.591 95.1058 166.749 104.22L162.678 105.805C162.678 105.805 158.973 109.862 151.455 110.104L131.24 110.045L130.598 103.058L144.346 100.337C144.346 100.337 147.274 98.0556 131.291 90.9345C131.291 90.9345 125.97 88.2456 129.295 72.5809C129.752 70.4279 131.523 68.7651 133.715 68.5406C134.924 68.4167 136.095 68.76 136.669 70.2269C138.132 73.9607 137.273 77.8699 140.637 80.0031C144 82.1363 166.148 85.9627 166.148 85.9627Z" fill="#FF9D9D"/>
<path d="M400.712 164.863C400.712 164.863 381.897 203.676 332.008 200.978C320.136 200.335 309.24 194.193 302.523 184.393C289.541 165.45 269.455 132.069 273.465 111.927L188.715 102.743L180.502 83.0242L269.885 64.0191C277.792 62.338 285.932 65.5884 290.5 72.2503L340.704 145.467L353.938 145.84L400.712 164.863V164.863Z" fill="white"/>
<path d="M343.358 0.965088L339.005 4.22627L361.857 35.751L366.21 34.664L343.358 0.965088Z" fill="#3F3D56"/>
<path d="M402.776 70.9696L427.804 69.8826L438.686 118.8C438.686 118.8 415.834 204.678 388.629 201.417C388.629 201.417 371.762 188.916 371.762 184.567C371.762 180.219 348.91 169.349 348.91 169.349L343.469 150.869L359.792 125.866C359.792 125.866 366.321 106.299 388.085 95.4285L402.776 70.9696V70.9696Z" fill="#FF9D9D"/>
<path d="M259.679 109.017H37.1442V114.452H145.963V318.819H151.404V114.452H259.679V109.017Z" fill="white" fill-opacity="0.42"/>
<path d="M415.834 66.6214C432.061 66.6214 445.215 53.4807 445.215 37.2708C445.215 21.0609 432.061 7.92017 415.834 7.92017C399.607 7.92017 386.453 21.0609 386.453 37.2708C386.453 53.4807 399.607 66.6214 415.834 66.6214Z" fill="#D7A3AA"/>
<path d="M313.39 74.7743L292.869 82.9272L333.132 136.193L347.278 125.323L313.39 74.7743Z" fill="#E6E6E6"/>
<path d="M393.526 176.958C393.526 176.958 385.909 201.036 369.586 188.997C353.263 176.958 329.799 139.998 329.799 139.998L342.381 130.758L369.586 160.237L377.203 156.304L393.526 176.958Z" fill="#D7A3AA"/>
<path d="M405.496 92.1672L430.525 107.386L393.526 187.829L369.586 155.217L405.496 92.1672Z" fill="#FF9D9D"/>
<path d="M339.389 140.458C344.593 137.456 345.037 128.49 340.379 120.431C335.722 112.372 327.726 108.272 322.522 111.274C317.317 114.276 316.874 123.242 321.531 131.301C326.189 139.36 334.184 143.46 339.389 140.458Z" fill="#D7A3AA"/>
<path d="M419.047 126.136C426.587 101.441 434.68 93.626 443.187 98.5189C449.663 102.243 451.612 110.72 447.817 117.15C438.144 133.54 418.211 171.092 422.363 195.982C422.363 195.982 428.892 230.767 376.659 230.767C324.426 230.767 274.369 218.81 274.369 218.81L301.574 214.462L363.441 218.876C377.576 219.885 389.489 207.803 387.601 193.773C387.538 193.309 387.464 192.841 387.378 192.368C384.276 175.327 419.047 126.136 419.047 126.136V126.136Z" fill="white"/>
<path d="M404.822 25.1037C402.422 31.8171 407.696 38.7881 414.816 38.3139L414.986 38.3026C419.772 44.2795 419.904 52.7342 415.307 58.8575C414.929 66.7497 416.167 74.6359 418.944 82.034L426.747 102.82L438.759 97.2201L444.46 112.42L478 95.1599L457.673 49.471L451.469 24.6836C447.056 7.04844 429.049 -3.56645 411.462 1.10022L397.969 4.68058C387.309 7.50916 381.173 18.6582 384.495 29.1649L404.822 25.1037Z" fill="#DABE78"/>
</g>
<defs>
<clipPath id="clip0_74_71">
<rect width="478" height="320" fill="white"/>
</clipPath>
</defs>
</svg>
